<svg id="Ayuda" xmlns="http://www.w3.org/2000/svg" xmlns:xlink="http://www.w3.org/1999/xlink" width="146.597" height="45.298" viewBox="0 0 146.597 45.298">
  <defs>
    <clipPath id="clip-path">
      <rect id="Rectangle_2130" data-name="Rectangle 2130" width="146.597" height="45.298" fill="#fff"/>
    </clipPath>
    <clipPath id="clip-path-2">
      <path id="Path_105" data-name="Path 105" d="M19.3,38.672a6.061,6.061,0,1,0,.015,0H19.3m0,18.607a12.225,12.225,0,1,1,.005,0h-.005M0,44.73A19.3,19.3,0,0,0,33.075,58.262l5.54,5.775V44.73A19.308,19.308,0,1,0,0,44.73" transform="translate(0 -25.422)" fill="#fff"/>
    </clipPath>
  </defs>
  <g id="Group_50" data-name="Group 50">
    <g id="Group_49" data-name="Group 49" clip-path="url(#clip-path)">
      <path id="Path_101" data-name="Path 101" d="M225.1,52.613h8.76l4.082,13.82a13.585,13.585,0,0,1,.4,2.615h.17a14.441,14.441,0,0,1,.51-2.573l4.189-13.863H251.7l-9.525,25.621q-1.829,4.89-4.5,6.91a11.234,11.234,0,0,1-6.963,2.02,16.755,16.755,0,0,1-3.4-.361V80.275a11.707,11.707,0,0,0,2.573.255,4.19,4.19,0,0,0,1.935-.425,4.415,4.415,0,0,0,1.446-1.2,10.579,10.579,0,0,0,1.318-2.541Z" transform="translate(-186.624 -43.619)" fill="#fff"/>
      <path id="Path_102" data-name="Path 102" d="M414.447,76.7l-1.042-3h-.489a6.765,6.765,0,0,1-2.9,2.541,10.1,10.1,0,0,1-4.369.882,8.164,8.164,0,0,1-6.187-2.307,9.038,9.038,0,0,1-2.211-6.517V52.613h8.313V65.774a7.558,7.558,0,0,0,.67,3.572,2.319,2.319,0,0,0,2.2,1.212,3.2,3.2,0,0,0,3.062-1.69q.914-1.69.914-5.709V52.613h8.313V76.7Z" transform="translate(-329.34 -43.619)" fill="#fff"/>
      <path id="Path_103" data-name="Path 103" d="M570.577,33.508a7.207,7.207,0,0,1-4.5-1.467,9.3,9.3,0,0,1-2.977-4.316,19.173,19.173,0,0,1-1.052-6.655q0-5.869,2.36-9.185A7.531,7.531,0,0,1,570.9,8.568a7.437,7.437,0,0,1,3.54.808,7.826,7.826,0,0,1,2.775,2.722h.17a39.926,39.926,0,0,1-.4-5.656V0h8.377V33.083h-6.272l-1.786-3.04h-.319a7.045,7.045,0,0,1-6.4,3.466m3.4-6.57a3.106,3.106,0,0,0,2.817-1.255,7.558,7.558,0,0,0,.882-3.87v-.659a8.423,8.423,0,0,0-.914-4.54,3.221,3.221,0,0,0-2.87-1.35,2.81,2.81,0,0,0-2.541,1.541,8.761,8.761,0,0,0-.9,4.391,8.151,8.151,0,0,0,.914,4.274,2.909,2.909,0,0,0,2.615,1.467" transform="translate(-465.972 0.001)" fill="#fff"/>
      <path id="Path_104" data-name="Path 104" d="M741.376,74.641l-1.595-3.189h-.17a9.471,9.471,0,0,1-3.423,2.849,11.309,11.309,0,0,1-4.508.765,7.07,7.07,0,0,1-5.358-2.041,7.96,7.96,0,0,1-1.956-5.741,6.531,6.531,0,0,1,2.679-5.73q2.679-1.882,7.761-2.116l4.019-.128v-.34q0-2.977-2.934-2.977a17.546,17.546,0,0,0-6.7,1.786l-2.4-5.486a23.108,23.108,0,0,1,10.631-2.169q4.635,0,7.176,2.3a8.214,8.214,0,0,1,2.541,6.421v15.8ZM735.211,69.2a3.748,3.748,0,0,0,2.583-.957,3.176,3.176,0,0,0,1.074-2.488V63.882l-1.914.085q-4.1.149-4.1,3.019,0,2.212,2.36,2.211" transform="translate(-600.541 -41.557)" fill="#fff"/>
    </g>
  </g>
  <g id="Group_52" data-name="Group 52" transform="translate(0 4.346)">
    <g id="Group_51" data-name="Group 51" clip-path="url(#clip-path-2)">
      <rect id="Rectangle_2131" data-name="Rectangle 2131" width="38.834" height="38.834" transform="translate(-0.219 38.614) rotate(-89.674)" fill="#fff"/>
    </g>
  </g>
  <g id="Group_54" data-name="Group 54">
    <g id="Group_53" data-name="Group 53" clip-path="url(#clip-path)">
      <path id="Path_106" data-name="Path 106" d="M348.878,244.822a.748.748,0,0,1,.2-.564.8.8,0,0,1,.578-.191.778.778,0,0,1,.567.2.868.868,0,0,1,0,1.113.766.766,0,0,1-.565.2.788.788,0,0,1-.573-.2.742.742,0,0,1-.2-.558" transform="translate(-289.24 -202.345)" fill="#fff"/>
      <path id="Path_107" data-name="Path 107" d="M363.948,244.822a.748.748,0,0,1,.2-.564.8.8,0,0,1,.578-.191.778.778,0,0,1,.567.2.868.868,0,0,1,0,1.113.766.766,0,0,1-.565.2.788.788,0,0,1-.573-.2.743.743,0,0,1-.2-.558" transform="translate(-301.734 -202.345)" fill="#fff"/>
      <path id="Path_108" data-name="Path 108" d="M379.019,244.822a.748.748,0,0,1,.2-.564.8.8,0,0,1,.578-.191.778.778,0,0,1,.567.2.868.868,0,0,1,0,1.113.766.766,0,0,1-.565.2.788.788,0,0,1-.573-.2.743.743,0,0,1-.2-.558" transform="translate(-314.228 -202.345)" fill="#fff"/>
      <path id="Path_109" data-name="Path 109" d="M399.75,218.676h-1.345v-2.9q0-1.075-.794-1.075a.9.9,0,0,0-.816.387,2.374,2.374,0,0,0-.252,1.253v2.337H395.2v-6.913h1.345v1.408q0,.164-.031.773l-.031.4h.07a1.556,1.556,0,0,1,1.429-.729,1.74,1.74,0,0,1,1.319.471,1.879,1.879,0,0,1,.45,1.351Z" transform="translate(-327.642 -175.564)" fill="#fff"/>
      <path id="Path_110" data-name="Path 110" d="M430.71,227.749a2.314,2.314,0,0,1-2.532-2.537,2.769,2.769,0,0,1,.62-1.93,2.2,2.2,0,0,1,1.714-.682,2.163,2.163,0,0,1,1.628.6,2.278,2.278,0,0,1,.582,1.657v.658h-3.181a1.31,1.31,0,0,0,.34.9,1.19,1.19,0,0,0,.891.324,3.681,3.681,0,0,0,.843-.093,4.2,4.2,0,0,0,.829-.3V227.4a3.146,3.146,0,0,1-.754.264,4.738,4.738,0,0,1-.979.086m-.19-4.185a.849.849,0,0,0-.67.273,1.269,1.269,0,0,0-.278.775h1.888a1.134,1.134,0,0,0-.26-.775.877.877,0,0,0-.679-.273" transform="translate(-354.984 -184.548)" fill="#fff"/>
      <path id="Path_111" data-name="Path 111" d="M463.91,222.6a2.153,2.153,0,0,1,.454.04l-.1,1.271a1.532,1.532,0,0,0-.4-.044,1.421,1.421,0,0,0-1,.333,1.209,1.209,0,0,0-.359.933v2.528h-1.345v-4.967h1.019l.2.835h.066a1.863,1.863,0,0,1,.62-.673,1.521,1.521,0,0,1,.849-.255" transform="translate(-382.325 -184.548)" fill="#fff"/>
      <path id="Path_112" data-name="Path 112" d="M485.934,227.749a2.314,2.314,0,0,1-2.532-2.537,2.769,2.769,0,0,1,.62-1.93,2.2,2.2,0,0,1,1.714-.682,2.163,2.163,0,0,1,1.628.6,2.278,2.278,0,0,1,.582,1.657v.658h-3.181a1.308,1.308,0,0,0,.34.9,1.19,1.19,0,0,0,.891.324,3.681,3.681,0,0,0,.842-.093,4.2,4.2,0,0,0,.829-.3V227.4a3.15,3.15,0,0,1-.754.264,4.736,4.736,0,0,1-.979.086m-.19-4.185a.85.85,0,0,0-.671.273,1.27,1.27,0,0,0-.278.775h1.888a1.135,1.135,0,0,0-.26-.775.878.878,0,0,0-.679-.273" transform="translate(-400.768 -184.548)" fill="#fff"/>
      <path id="Path_113" data-name="Path 113" d="M529.769,221.994a2.9,2.9,0,0,0,.847-.155v1.008a3,3,0,0,1-1.235.227,1.5,1.5,0,0,1-1.175-.411,1.8,1.8,0,0,1-.368-1.233v-2.395h-.644v-.573l.741-.453.388-1.048h.86v1.057h1.381v1.017h-1.381v2.395a.53.53,0,0,0,.161.427.632.632,0,0,0,.425.138" transform="translate(-437.073 -179.873)" fill="#fff"/>
      <path id="Path_114" data-name="Path 114" d="M556.077,225.169a2.681,2.681,0,0,1-.635,1.9,2.294,2.294,0,0,1-1.769.684,2.463,2.463,0,0,1-1.253-.313,2.078,2.078,0,0,1-.834-.9,3.039,3.039,0,0,1-.291-1.368,2.666,2.666,0,0,1,.631-1.892,2.308,2.308,0,0,1,1.773-.675,2.474,2.474,0,0,1,1.253.311,2.071,2.071,0,0,1,.834.893,3.014,3.014,0,0,1,.291,1.364m-3.41,0a2.1,2.1,0,0,0,.24,1.115.858.858,0,0,0,.783.378.844.844,0,0,0,.774-.375,2.126,2.126,0,0,0,.236-1.117,2.063,2.063,0,0,0-.238-1.106,1.008,1.008,0,0,0-1.557,0,2.061,2.061,0,0,0-.238,1.108" transform="translate(-457.055 -184.549)" fill="#fff"/>
      <path id="Path_115" data-name="Path 115" d="M604.052,218.676h-1.346v-2.9q0-1.075-.794-1.075a.9.9,0,0,0-.816.387,2.374,2.374,0,0,0-.251,1.253v2.337H599.5v-6.913h1.345v1.408q0,.164-.031.773l-.031.4h.071a1.556,1.556,0,0,1,1.429-.729,1.74,1.74,0,0,1,1.319.471,1.879,1.879,0,0,1,.45,1.351Z" transform="translate(-497.02 -175.564)" fill="#fff"/>
      <path id="Path_116" data-name="Path 116" d="M635.012,227.749a2.314,2.314,0,0,1-2.532-2.537,2.769,2.769,0,0,1,.62-1.93,2.2,2.2,0,0,1,1.714-.682,2.163,2.163,0,0,1,1.628.6,2.279,2.279,0,0,1,.582,1.657v.658h-3.181a1.311,1.311,0,0,0,.34.9,1.19,1.19,0,0,0,.891.324,3.681,3.681,0,0,0,.843-.093,4.2,4.2,0,0,0,.829-.3V227.4a3.146,3.146,0,0,1-.754.264,4.74,4.74,0,0,1-.979.086m-.19-4.185a.849.849,0,0,0-.67.273,1.269,1.269,0,0,0-.278.775h1.888a1.134,1.134,0,0,0-.26-.775.877.877,0,0,0-.679-.273" transform="translate(-524.362 -184.548)" fill="#fff"/>
      <rect id="Rectangle_2132" data-name="Rectangle 2132" width="1.345" height="6.913" transform="translate(113.756 36.199)" fill="#fff"/>
      <path id="Path_117" data-name="Path 117" d="M684.3,227.749a1.63,1.63,0,0,1-1.363-.635h-.071q.07.622.071.72v2.013h-1.346v-7.153h1.094l.19.644h.062a1.553,1.553,0,0,1,1.4-.738,1.6,1.6,0,0,1,1.368.68,3.16,3.16,0,0,1,.494,1.888,3.75,3.75,0,0,1-.232,1.382,1.936,1.936,0,0,1-.659.893,1.681,1.681,0,0,1-1.006.306m-.4-4.065a.847.847,0,0,0-.728.309,1.782,1.782,0,0,0-.238,1.02v.147a2.106,2.106,0,0,0,.236,1.146.84.84,0,0,0,.748.346q.9,0,.9-1.5a2.157,2.157,0,0,0-.223-1.1.759.759,0,0,0-.7-.367" transform="translate(-565.075 -184.548)" fill="#fff"/>
    </g>
  </g>
</svg>
