<svg xmlns="http://www.w3.org/2000/svg" xmlns:xlink="http://www.w3.org/1999/xlink" width="100" height="100" viewBox="0 0 100 100">
  <defs>
    <clipPath id="clip-path">
      <rect id="Rectangle_2163" data-name="Rectangle 2163" width="100" height="100" transform="translate(40 40)" fill="#fff" stroke="#707070" stroke-width="1"/>
    </clipPath>
  </defs>
  <g id="Mask_Group_20" data-name="Mask Group 20" transform="translate(-40 -40)" clip-path="url(#clip-path)">
    <g id="excellence" transform="translate(40 40)">
      <path id="Path_156" data-name="Path 156" d="M62.729,42.19a12.761,12.761,0,0,0-1.968-5.321l8.873-12.662A15.137,15.137,0,0,0,70.681,8.281,15.137,15.137,0,0,0,57.036,0h-14l-.046,0-.036,0A15.136,15.136,0,0,0,29.312,8.281,15.137,15.137,0,0,0,30.36,24.208L39.232,36.87a12.758,12.758,0,0,0-1.97,5.333A30.313,30.313,0,0,0,19.911,66.035C17.75,83.809,32.086,100,50,100A30.341,30.341,0,0,0,72.708,89.764a1.466,1.466,0,0,0-2.195-1.943A27.379,27.379,0,1,1,77.172,73a28.994,28.994,0,0,1-3.337,10.211A1.466,1.466,0,0,0,76.4,84.621a31.988,31.988,0,0,0,3.679-11.27A30.361,30.361,0,0,0,62.729,42.19ZM31.912,9.634a12.226,12.226,0,0,1,9.97-6.66L48.465,24.71,46.4,31.539a12.845,12.845,0,0,0-5.218,3L32.76,22.526A12.252,12.252,0,0,1,31.912,9.634ZM50,19.654,44.931,2.931h10.13ZM58.814,34.54A12.8,12.8,0,0,0,50,31.022c-.129,0-.256.006-.383.01l8.5-28.057a12.227,12.227,0,0,1,9.97,6.66,12.252,12.252,0,0,1-.848,12.892ZM50,33.953a9.932,9.932,0,0,1,9.46,6.946,30.3,30.3,0,0,0-18.921.007A9.931,9.931,0,0,1,50,33.953Z" fill="#8cb777"/>
      <path id="Path_157" data-name="Path 157" d="M50,48.921A20.772,20.772,0,1,0,70.768,69.693,20.8,20.8,0,0,0,50,48.921Zm0,38.613A17.841,17.841,0,1,1,67.837,69.693,17.861,17.861,0,0,1,50,87.534Z" fill="#8cb777"/>
      <path id="Path_158" data-name="Path 158" d="M60.03,66.763l-4.487-2.454a.406.406,0,0,1-.162-.162l-2.454-4.487a3.34,3.34,0,0,0-5.861,0l-2.454,4.487a.407.407,0,0,1-.162.162l-4.487,2.454a3.34,3.34,0,0,0,0,5.861l4.487,2.454a.406.406,0,0,1,.162.162l2.454,4.487a3.34,3.34,0,0,0,5.861,0l2.454-4.487a.407.407,0,0,1,.162-.162l4.487-2.454a3.34,3.34,0,0,0,0-5.861Zm-1.407,3.289-4.486,2.454a3.33,3.33,0,0,0-1.328,1.328L50.355,78.32a.409.409,0,0,1-.718,0l-2.454-4.487a3.331,3.331,0,0,0-1.328-1.328l-4.487-2.454a.409.409,0,0,1,0-.718l4.487-2.454a3.33,3.33,0,0,0,1.328-1.328l2.454-4.487a.409.409,0,0,1,.718,0l2.454,4.487a3.33,3.33,0,0,0,1.328,1.328l4.487,2.454a.409.409,0,0,1,0,.717Z" fill="#8cb777"/>
    </g>
  </g>
</svg>
