<svg xmlns="http://www.w3.org/2000/svg" xmlns:xlink="http://www.w3.org/1999/xlink" width="536" height="536" viewBox="0 0 536 536">
  <defs>
    <clipPath id="clip-path">
      <circle id="Ellipse_14" data-name="Ellipse 14" cx="268" cy="268" r="268" transform="translate(1106 8242)" fill="#fde2e9"/>
    </clipPath>
  </defs>
  <g id="Group_15203" data-name="Group 15203" transform="translate(-1106 -8242)">
    <circle id="Ellipse_9" data-name="Ellipse 9" cx="199" cy="199" r="199" transform="translate(1175 8311)" fill="#fde2e9"/>
    <g id="Mask_Group_15" data-name="Mask Group 15" clip-path="url(#clip-path)">
      <g id="undraw_team_up_ip2x" transform="translate(1106 8354.998)">
        <circle id="Ellipse_15" data-name="Ellipse 15" cx="4.322" cy="4.322" r="4.322" transform="translate(513.694 10.368)" fill="#f2f2f2"/>
        <circle id="Ellipse_16" data-name="Ellipse 16" cx="4.322" cy="4.322" r="4.322" transform="translate(496.469 10.368)" fill="#f2f2f2"/>
        <circle id="Ellipse_17" data-name="Ellipse 17" cx="4.322" cy="4.322" r="4.322" transform="translate(479.244 10.368)" fill="#f2f2f2"/>
        <circle id="Ellipse_18" data-name="Ellipse 18" cx="4.322" cy="4.322" r="4.322" transform="translate(462.019 10.368)" fill="#f2f2f2"/>
        <circle id="Ellipse_19" data-name="Ellipse 19" cx="4.322" cy="4.322" r="4.322" transform="translate(513.694 28.413)" fill="#f2f2f2"/>
        <circle id="Ellipse_20" data-name="Ellipse 20" cx="4.322" cy="4.322" r="4.322" transform="translate(496.469 28.413)" fill="#f2f2f2"/>
        <circle id="Ellipse_21" data-name="Ellipse 21" cx="4.322" cy="4.322" r="4.322" transform="translate(479.244 28.413)" fill="#f2f2f2"/>
        <circle id="Ellipse_22" data-name="Ellipse 22" cx="4.322" cy="4.322" r="4.322" transform="translate(462.019 28.413)" fill="#f2f2f2"/>
        <circle id="Ellipse_23" data-name="Ellipse 23" cx="4.322" cy="4.322" r="4.322" transform="translate(513.694 46.458)" fill="#f2f2f2"/>
        <circle id="Ellipse_24" data-name="Ellipse 24" cx="4.322" cy="4.322" r="4.322" transform="translate(496.469 46.458)" fill="#f2f2f2"/>
        <circle id="Ellipse_25" data-name="Ellipse 25" cx="4.322" cy="4.322" r="4.322" transform="translate(479.244 46.458)" fill="#f2f2f2"/>
        <circle id="Ellipse_26" data-name="Ellipse 26" cx="4.322" cy="4.322" r="4.322" transform="translate(462.019 46.458)" fill="#f2f2f2"/>
        <circle id="Ellipse_27" data-name="Ellipse 27" cx="4.322" cy="4.322" r="4.322" transform="translate(513.694 64.503)" fill="#f2f2f2"/>
        <circle id="Ellipse_28" data-name="Ellipse 28" cx="4.322" cy="4.322" r="4.322" transform="translate(496.469 64.503)" fill="#f2f2f2"/>
        <circle id="Ellipse_29" data-name="Ellipse 29" cx="4.322" cy="4.322" r="4.322" transform="translate(479.244 64.503)" fill="#f2f2f2"/>
        <circle id="Ellipse_30" data-name="Ellipse 30" cx="4.322" cy="4.322" r="4.322" transform="translate(462.019 64.503)" fill="#f2f2f2"/>
        <circle id="Ellipse_31" data-name="Ellipse 31" cx="4.322" cy="4.322" r="4.322" transform="translate(513.694 82.548)" fill="#f2f2f2"/>
        <circle id="Ellipse_32" data-name="Ellipse 32" cx="4.322" cy="4.322" r="4.322" transform="translate(496.469 82.548)" fill="#f2f2f2"/>
        <circle id="Ellipse_33" data-name="Ellipse 33" cx="4.322" cy="4.322" r="4.322" transform="translate(479.244 82.548)" fill="#f2f2f2"/>
        <circle id="Ellipse_34" data-name="Ellipse 34" cx="4.322" cy="4.322" r="4.322" transform="translate(462.019 82.548)" fill="#f2f2f2"/>
        <circle id="Ellipse_35" data-name="Ellipse 35" cx="4.322" cy="4.322" r="4.322" transform="translate(513.694 100.592)" fill="#f2f2f2"/>
        <circle id="Ellipse_36" data-name="Ellipse 36" cx="4.322" cy="4.322" r="4.322" transform="translate(496.469 100.592)" fill="#f2f2f2"/>
        <circle id="Ellipse_37" data-name="Ellipse 37" cx="4.322" cy="4.322" r="4.322" transform="translate(479.244 100.592)" fill="#f2f2f2"/>
        <circle id="Ellipse_38" data-name="Ellipse 38" cx="4.322" cy="4.322" r="4.322" transform="translate(462.019 100.592)" fill="#f2f2f2"/>
        <path id="Path_66" data-name="Path 66" d="M643.656,444.274c3.12-6.739,6.238-13.578,7.592-20.88s.786-15.227-3.092-21.56-11.514-10.628-18.8-9.2c-5.985,1.176-10.791,5.89-13.6,11.3s-3.943,11.515-5.037,17.516c-.354-6.817-.728-13.744-2.993-20.183S601,388.831,594.641,386.339s-14.622-.532-17.972,5.416c-4.719,8.38,1.538,20.134-3.888,28.074-.931-7.964-9.26-14.257-17.175-12.976s-13.835,9.879-12.207,17.73c.969,4.672,4.157,8.646,7.968,11.517s8.243,6.2,12.628,8.08Z" transform="translate(-132.998 -146.225)" fill="#f2f2f2"/>
        <path id="Path_67" data-name="Path 67" d="M547.555,412.479c6.288,2.2,12.633,4.421,18.374,7.857a33.875,33.875,0,0,1,12.62,12.536,22.292,22.292,0,0,1,2.757,9.262c.042.68,1.106.685,1.064,0-.372-6.056-3.323-11.6-7.41-15.98-4.481-4.805-10.287-8.087-16.281-10.633-3.554-1.51-7.2-2.793-10.841-4.067-.648-.226-.926.8-.283,1.026Z" transform="translate(-132.998 -146.225)" fill="#fff"/>
        <path id="Path_68" data-name="Path 68" d="M583.824,387.395a95.83,95.83,0,0,1,9.217,20.461,96.985,96.985,0,0,1,4.251,22.034,95.77,95.77,0,0,1,.1,12.589c-.039.684,1.024.682,1.064,0a97.038,97.038,0,0,0-1.364-22.6,98.2,98.2,0,0,0-6.529-21.681,95.734,95.734,0,0,0-5.822-11.337.532.532,0,0,0-.919.537Z" transform="translate(-132.998 -146.225)" fill="#fff"/>
        <path id="Path_69" data-name="Path 69" d="M635.887,393.505a155.08,155.08,0,0,0-11.44,38.481q-.9,5.59-1.389,11.236c-.06.682,1,.678,1.064,0a154.521,154.521,0,0,1,8.513-38.78q1.894-5.275,4.17-10.4c.275-.62-.641-1.162-.919-.537Z" transform="translate(-132.998 -146.225)" fill="#fff"/>
        <path id="Path_70" data-name="Path 70" d="M668.329,444.1H133.666a.668.668,0,0,1,0-1.337H668.329a.668.668,0,0,1,0,1.337Z" transform="translate(-132.998 -146.225)" fill="#3f3d56"/>
        <path id="Path_71" data-name="Path 71" d="M409.861,273.571H317.145a5.033,5.033,0,0,1-5.027-5.027V151.252a5.033,5.033,0,0,1,5.027-5.027h92.716a5.032,5.032,0,0,1,5.027,5.027V268.544a5.032,5.032,0,0,1-5.027,5.027ZM317.145,147.343a3.914,3.914,0,0,0-3.91,3.91V268.544a3.914,3.914,0,0,0,3.91,3.91h92.716a3.914,3.914,0,0,0,3.91-3.91V151.252a3.914,3.914,0,0,0-3.91-3.91Z" transform="translate(-132.998 -146.225)" fill="#3f3d56"/>
        <path id="Path_72" data-name="Path 72" d="M355.79,202.6H335.382a2.516,2.516,0,0,1-2.513-2.513V176.008a2.516,2.516,0,0,1,2.513-2.513H355.79a2.516,2.516,0,0,1,2.513,2.513v24.084A2.516,2.516,0,0,1,355.79,202.6Z" transform="translate(-132.998 -146.225)" fill="#f40e41"/>
        <path id="Path_73" data-name="Path 73" d="M395.446,213.775H375.038a2.516,2.516,0,0,1-2.513-2.513V187.178a2.516,2.516,0,0,1,2.513-2.513h20.409a2.516,2.516,0,0,1,2.513,2.513v24.084a2.516,2.516,0,0,1-2.513,2.513Z" transform="translate(-132.998 -146.225)" fill="#ccc"/>
        <path id="Path_74" data-name="Path 74" d="M363.61,247.846H343.2a2.516,2.516,0,0,1-2.513-2.513V221.249a2.516,2.516,0,0,1,2.513-2.513H363.61a2.516,2.516,0,0,1,2.513,2.513v24.084a2.516,2.516,0,0,1-2.513,2.513Z" transform="translate(-132.998 -146.225)" fill="#ff6584"/>
        <circle id="Ellipse_39" data-name="Ellipse 39" cx="4.322" cy="4.322" r="4.322" transform="translate(73.158 3.578)" fill="#f2f2f2"/>
        <circle id="Ellipse_40" data-name="Ellipse 40" cx="4.322" cy="4.322" r="4.322" transform="translate(73.158 20.803)" fill="#f2f2f2"/>
        <circle id="Ellipse_41" data-name="Ellipse 41" cx="4.322" cy="4.322" r="4.322" transform="translate(73.158 38.028)" fill="#f2f2f2"/>
        <circle id="Ellipse_42" data-name="Ellipse 42" cx="4.322" cy="4.322" r="4.322" transform="translate(73.158 55.253)" fill="#f2f2f2"/>
        <circle id="Ellipse_43" data-name="Ellipse 43" cx="4.322" cy="4.322" r="4.322" transform="translate(91.203 3.578)" fill="#f2f2f2"/>
        <circle id="Ellipse_44" data-name="Ellipse 44" cx="4.322" cy="4.322" r="4.322" transform="translate(91.203 20.803)" fill="#f2f2f2"/>
        <circle id="Ellipse_45" data-name="Ellipse 45" cx="4.322" cy="4.322" r="4.322" transform="translate(91.203 38.028)" fill="#f2f2f2"/>
        <circle id="Ellipse_46" data-name="Ellipse 46" cx="4.322" cy="4.322" r="4.322" transform="translate(91.203 55.253)" fill="#f2f2f2"/>
        <circle id="Ellipse_47" data-name="Ellipse 47" cx="4.322" cy="4.322" r="4.322" transform="translate(109.248 3.578)" fill="#f2f2f2"/>
        <circle id="Ellipse_48" data-name="Ellipse 48" cx="4.322" cy="4.322" r="4.322" transform="translate(109.248 20.803)" fill="#f2f2f2"/>
        <circle id="Ellipse_49" data-name="Ellipse 49" cx="4.322" cy="4.322" r="4.322" transform="translate(109.248 38.028)" fill="#f2f2f2"/>
        <circle id="Ellipse_50" data-name="Ellipse 50" cx="4.322" cy="4.322" r="4.322" transform="translate(109.248 55.253)" fill="#f2f2f2"/>
        <circle id="Ellipse_51" data-name="Ellipse 51" cx="4.322" cy="4.322" r="4.322" transform="translate(127.293 3.578)" fill="#f2f2f2"/>
        <circle id="Ellipse_52" data-name="Ellipse 52" cx="4.322" cy="4.322" r="4.322" transform="translate(127.293 20.803)" fill="#f2f2f2"/>
        <circle id="Ellipse_53" data-name="Ellipse 53" cx="4.322" cy="4.322" r="4.322" transform="translate(127.293 38.028)" fill="#f2f2f2"/>
        <circle id="Ellipse_54" data-name="Ellipse 54" cx="4.322" cy="4.322" r="4.322" transform="translate(127.293 55.253)" fill="#f2f2f2"/>
        <circle id="Ellipse_55" data-name="Ellipse 55" cx="4.322" cy="4.322" r="4.322" transform="translate(145.337 3.578)" fill="#f2f2f2"/>
        <circle id="Ellipse_56" data-name="Ellipse 56" cx="4.322" cy="4.322" r="4.322" transform="translate(145.337 20.803)" fill="#f2f2f2"/>
        <circle id="Ellipse_57" data-name="Ellipse 57" cx="4.322" cy="4.322" r="4.322" transform="translate(145.337 38.028)" fill="#f2f2f2"/>
        <circle id="Ellipse_58" data-name="Ellipse 58" cx="4.322" cy="4.322" r="4.322" transform="translate(145.337 55.253)" fill="#f2f2f2"/>
        <circle id="Ellipse_59" data-name="Ellipse 59" cx="4.322" cy="4.322" r="4.322" transform="translate(163.382 3.578)" fill="#f2f2f2"/>
        <circle id="Ellipse_60" data-name="Ellipse 60" cx="4.322" cy="4.322" r="4.322" transform="translate(163.382 20.803)" fill="#f2f2f2"/>
        <circle id="Ellipse_61" data-name="Ellipse 61" cx="4.322" cy="4.322" r="4.322" transform="translate(163.382 38.028)" fill="#f2f2f2"/>
        <circle id="Ellipse_62" data-name="Ellipse 62" cx="4.322" cy="4.322" r="4.322" transform="translate(163.382 55.253)" fill="#f2f2f2"/>
        <circle id="Ellipse_63" data-name="Ellipse 63" cx="28.078" cy="28.078" r="28.078" transform="translate(92.919 247.555)" fill="#2f2e41"/>
        <rect id="Rectangle_2146" data-name="Rectangle 2146" width="15.283" height="8.53" transform="translate(96.654 300.927) rotate(-26.601)" fill="#2f2e41"/>
        <ellipse id="Ellipse_64" data-name="Ellipse 64" cx="2.666" cy="7.108" rx="2.666" ry="7.108" transform="matrix(0.55, -0.835, 0.835, 0.55, 88.939, 302.175)" fill="#2f2e41"/>
        <rect id="Rectangle_2147" data-name="Rectangle 2147" width="8.53" height="15.283" transform="translate(127.855 301.705) rotate(-63.399)" fill="#2f2e41"/>
        <ellipse id="Ellipse_65" data-name="Ellipse 65" cx="7.108" cy="2.666" rx="7.108" ry="2.666" transform="matrix(0.835, -0.55, 0.55, 0.835, 138.25, 305.553)" fill="#2f2e41"/>
        <circle id="Ellipse_66" data-name="Ellipse 66" cx="9.596" cy="9.596" r="9.596" transform="translate(109.435 259.169)" fill="#fff"/>
        <path id="Path_75" data-name="Path 75" d="M246.41,415.223c3.424-2.608,7.294,1.263,4.686,4.686C247.673,422.517,243.8,418.646,246.41,415.223Z" transform="translate(-132.998 -146.225)" fill="#3f3d56"/>
        <path id="Path_76" data-name="Path 76" d="M276.145,391.313c.422-10.395-8.537-19.2-20.01-19.666s-21.117,7.583-21.539,17.978,7.553,12.757,19.027,13.223S275.722,401.708,276.145,391.313Z" transform="translate(-132.998 -146.225)" fill="#ccc"/>
        <ellipse id="Ellipse_67" data-name="Ellipse 67" cx="4.407" cy="14.039" rx="4.407" ry="14.039" transform="translate(137.698 271.904) rotate(-40.645)" fill="#2f2e41"/>
        <ellipse id="Ellipse_68" data-name="Ellipse 68" cx="14.039" cy="4.407" rx="14.039" ry="4.407" transform="translate(79.398 287.464) rotate(-49.355)" fill="#2f2e41"/>
        <path id="Path_77" data-name="Path 77" d="M261.707,432.924a6.4,6.4,0,1,1-12.588,2.292l0-.012c-.629-3.477,2.059-4.707,5.535-5.336S261.077,429.447,261.707,432.924Z" transform="translate(-132.998 -146.225)" fill="#fff"/>
        <path id="Path_78" data-name="Path 78" d="M550.9,364.985H513.469a1.671,1.671,0,0,1-1.671,1.671H475.053a8.6,8.6,0,0,0-1.41,1.337,8.294,8.294,0,0,0-1.938,5.347v1.337a8.357,8.357,0,0,0,8.354,8.354H550.9a8.361,8.361,0,0,0,8.354-8.354v-1.337A8.366,8.366,0,0,0,550.9,364.985Z" transform="translate(-132.998 -146.225)" fill="#3f3d56"/>
        <rect id="Rectangle_2148" data-name="Rectangle 2148" width="8.688" height="61.486" transform="translate(378.469 236.473)" fill="#3f3d56"/>
        <path id="Path_79" data-name="Path 79" d="M544.883,443.879c0,.939-13.166.363-29.406.363s-29.406.576-29.406-.363,13.166-8.383,29.406-8.383S544.883,442.941,544.883,443.879Z" transform="translate(-132.998 -146.225)" fill="#3f3d56"/>
        <path id="Path_80" data-name="Path 80" d="M549.264,366.91l-1.457-9.116a4.394,4.394,0,0,0-5.026-3.642l-15.031,2.4-25.744,4.11L493.633,362H511.8a1.672,1.672,0,0,1,1.671,1.671v1.317a1.671,1.671,0,0,1-1.671,1.671H465.57a4.231,4.231,0,0,0-1.624,1.337,4.335,4.335,0,0,0-.829,3.315l.414,2.593.5,3.148.541,3.382a4.385,4.385,0,0,0,5.012,3.636l11.943-1.9,34.446-5.5,29.647-4.732A4.4,4.4,0,0,0,549.264,366.91Z" transform="translate(-132.998 -146.225)" fill="#f40e41"/>
        <path id="Path_81" data-name="Path 81" d="M480.613,367.993a4.248,4.248,0,0,0-1.691-1.337H466.144a4.224,4.224,0,0,0-1.7,1.337,4.32,4.32,0,0,0-.916,2.667v50.933a4.384,4.384,0,0,0,4.378,4.378h9.243a4.384,4.384,0,0,0,4.377-4.378V370.659a4.333,4.333,0,0,0-.916-2.667Z" transform="translate(-132.998 -146.225)" fill="#f40e41"/>
        <path id="Path_82" data-name="Path 82" d="M508.429,281.244l-.087-.114-5.734-7.064a4.22,4.22,0,0,0-1.089-.956,3.218,3.218,0,0,0-.708-.361,4.21,4.21,0,0,0-1.143-.281,4.445,4.445,0,0,0-.789-.013.021.021,0,0,0-.013.007,4.334,4.334,0,0,0-2.419.962l-11.769,9.544-15.124,12.271-22.569,18.312-1.644,1.337H473.9l1.651-1.337,5.461-4.431.387-.307,26.372-21.393.02-.013a4.315,4.315,0,0,0,1.25-1.637,4.41,4.41,0,0,0,.348-1.317,4.345,4.345,0,0,0-.956-3.208Z" transform="translate(-132.998 -146.225)" fill="#f40e41"/>
        <path id="Path_83" data-name="Path 83" d="M508.343,281.13a10.9,10.9,0,0,0-2.379-4.879,10.772,10.772,0,0,0-4.444-3.141c-.268-.1-.528-.194-.8-.267a11.461,11.461,0,0,0-1.845-.388.021.021,0,0,0-.013.007,10.9,10.9,0,0,0-7.886,2.179L470.622,290.2a4.319,4.319,0,0,0-1.437,3.054,4.432,4.432,0,0,0,.367,1.985c.067.14.14.281.221.414a3.844,3.844,0,0,0,.561.749l3.261,3.662,7.586,8.508.214.241.488.555a4.377,4.377,0,0,0,6.2.274l17.557-18.86a10.836,10.836,0,0,0,2.132-3.362,11,11,0,0,0,.575-6.289Z" transform="translate(-132.998 -146.225)" fill="#2f2e41"/>
        <circle id="Ellipse_69" data-name="Ellipse 69" cx="33.498" cy="33.498" r="33.498" transform="translate(349.609 43.708)" fill="#f40e41"/>
        <path id="Path_84" data-name="Path 84" d="M528.667,362.3l-.916-5.748-.541-3.375a4.386,4.386,0,0,0-5.019-3.636l-24.347,3.883-6.6,1.056-1.337.214V362H511.8a1.671,1.671,0,0,1,1.671,1.671v1.317a1.671,1.671,0,0,1-1.671,1.671H442.512c0,.013.007.027.007.04l.414,2.593,1.043,6.523a4.385,4.385,0,0,0,5.013,3.636l11.943-1.9,2.6-.414.5-.08,17.5-2.794,11.9-1.9,18.887-3.014.281-.047,12.424-1.978a4.39,4.39,0,0,0,3.643-5.013Z" transform="translate(-132.998 -146.225)" fill="#f40e41"/>
        <path id="Path_85" data-name="Path 85" d="M561.7,337.717c0,27.308-2.774,43.642-45.547,38.964l-.174-.02a127.006,127.006,0,0,1-22.543-4.311,66.95,66.95,0,0,1-11.121-4.358c-.842-.428-1.651-.876-2.446-1.337H511.8a1.671,1.671,0,0,0,1.671-1.671v-1.317A1.671,1.671,0,0,0,511.8,362H489.9V319.786a4.906,4.906,0,0,0-4.9-4.9h.9c.154-.441.307-.889.475-1.337,1.624-4.511,1.464-8.06,3.77-12.478,3.168-6.1,3.188-12.224,7.352-17.377,3.1-3.83-6.4-8.007-2.908-10.881,6.7-5.534,14-8.956,21.407-8.956C543.309,263.86,561.7,310.409,561.7,337.717Z" transform="translate(-132.998 -146.225)" fill="#2f2e41"/>
        <path id="Path_86" data-name="Path 86" d="M516.808,235.847l.035-1.252c-2.329-.065-4.382-.211-5.925-1.338a3.848,3.848,0,0,1-1.491-2.834,2.2,2.2,0,0,1,.722-1.812c1.024-.865,2.672-.585,3.873-.034l1.036.475-1.986-14.515-1.24.17,1.689,12.347a4.419,4.419,0,0,0-4.18.6,3.424,3.424,0,0,0-1.164,2.812,5.09,5.09,0,0,0,2,3.8C512.162,235.716,514.738,235.789,516.808,235.847Z" transform="translate(-132.998 -146.225)" fill="#2f2e41"/>
        <rect id="Rectangle_2149" data-name="Rectangle 2149" width="6.742" height="1.252" transform="translate(365.959 69.546)" fill="#2f2e41"/>
        <rect id="Rectangle_2150" data-name="Rectangle 2150" width="6.742" height="1.252" transform="translate(387.24 69.546)" fill="#2f2e41"/>
        <path id="Path_87" data-name="Path 87" d="M536.018,290.821l-2.653-1.845-4.939-3.429a4.387,4.387,0,0,0-6.1,1.1l-16.1,23.171-14.99,21.574L489.9,333.32V362h.12a4.365,4.365,0,0,0,2.733-1.337,3.9,3.9,0,0,0,.421-.515l4.665-6.723,11.529-16.595,11.95-17.189L522.458,318l14.65-21.086a3.776,3.776,0,0,0,.221-.348,3.519,3.519,0,0,0,.18-.354,4.378,4.378,0,0,0-1.49-5.393Z" transform="translate(-132.998 -146.225)" fill="#f40e41"/>
        <path id="Path_88" data-name="Path 88" d="M536.065,281.651a10.75,10.75,0,0,0-1.484-.815,10.933,10.933,0,0,0-13.353,3.449l-15.211,20.625a4.361,4.361,0,0,0,1.457,6.042l13.848,8.688.174.107.7.434a4.393,4.393,0,0,0,6.022-1.47l10.74-21.32.18-.354.007-.007.661-1.33A10.936,10.936,0,0,0,536.065,281.651Z" transform="translate(-132.998 -146.225)" fill="#2f2e41"/>
        <path id="Path_89" data-name="Path 89" d="M442.933,366.656v50.319a4.384,4.384,0,0,0,4.377,4.378h9.243a4.384,4.384,0,0,0,4.378-4.378V366.656Z" transform="translate(-132.998 -146.225)" fill="#f40e41"/>
        <path id="Path_90" data-name="Path 90" d="M511.8,360.661H491.24V319.786A6.242,6.242,0,0,0,485,313.551H408.768a6.243,6.243,0,0,0-6.242,6.234v41.973a6.244,6.244,0,0,0,6.242,6.236H511.8c.107,0,.207-.007.307-.013s.187-.027.281-.04a3.018,3.018,0,0,0,2.419-2.954v-1.317a3.008,3.008,0,0,0-3.007-3.008Zm0,5.995H408.768a4.907,4.907,0,0,1-4.905-4.9V319.786a4.907,4.907,0,0,1,4.905-4.9H485a4.906,4.906,0,0,1,4.9,4.9V362H511.8a1.672,1.672,0,0,1,1.671,1.671v1.317A1.671,1.671,0,0,1,511.8,366.656Z" transform="translate(-132.998 -146.225)" fill="#3f3d56"/>
        <circle id="Ellipse_70" data-name="Ellipse 70" cx="5.14" cy="5.14" r="5.14" transform="translate(308.747 189.407)" fill="#f40e41"/>
        <rect id="Rectangle_2151" data-name="Rectangle 2151" width="1.337" height="6.015" transform="translate(356.886 215.144)" fill="#3f3d56"/>
        <ellipse id="Ellipse_71" data-name="Ellipse 71" cx="14.392" cy="4.518" rx="14.392" ry="4.518" transform="translate(137.833 184.225) rotate(-69.082)" fill="#2f2e41"/>
        <circle id="Ellipse_72" data-name="Ellipse 72" cx="28.783" cy="28.783" r="28.783" transform="matrix(0.16, -0.987, 0.987, 0.16, 87.566, 217.929)" fill="#2f2e41"/>
        <rect id="Rectangle_2152" data-name="Rectangle 2152" width="8.744" height="15.667" transform="translate(107.472 216.718)" fill="#2f2e41"/>
        <rect id="Rectangle_2153" data-name="Rectangle 2153" width="8.744" height="15.667" transform="translate(124.96 216.718)" fill="#2f2e41"/>
        <ellipse id="Ellipse_73" data-name="Ellipse 73" cx="7.287" cy="2.733" rx="7.287" ry="2.733" transform="translate(107.472 229.835)" fill="#2f2e41"/>
        <ellipse id="Ellipse_74" data-name="Ellipse 74" cx="7.287" cy="2.733" rx="7.287" ry="2.733" transform="translate(124.96 229.47)" fill="#2f2e41"/>
        <circle id="Ellipse_75" data-name="Ellipse 75" cx="9.837" cy="9.837" r="9.837" transform="translate(111.194 177.299) rotate(-1.683)" fill="#fff"/>
        <circle id="Ellipse_76" data-name="Ellipse 76" cx="3.279" cy="3.279" r="3.279" transform="translate(118.038 183.563)" fill="#3f3d56"/>
        <path id="Path_91" data-name="Path 91" d="M225.665,313.587c-2.324-10.408,5.105-20.926,16.594-23.491s22.686,3.793,25.01,14.2-5.29,14.247-16.778,16.813S227.989,324,225.665,313.587Z" transform="translate(-132.998 -146.225)" fill="#f40e41"/>
        <ellipse id="Ellipse_77" data-name="Ellipse 77" cx="4.518" cy="14.392" rx="4.518" ry="14.392" transform="matrix(0.429, -0.904, 0.904, 0.429, 73.23, 178.688)" fill="#2f2e41"/>
        <path id="Path_92" data-name="Path 92" d="M239.447,350.738c0,2.817,7.254,8.38,15.3,8.38s15.6-7.931,15.6-10.748-7.547.547-15.6.547S239.447,347.921,239.447,350.738Z" transform="translate(-132.998 -146.225)" fill="#fff"/>
        <path id="Path_93" data-name="Path 93" d="M309.131,334.185l-21.187,4.136a2.3,2.3,0,0,1-1.952-.516,2.338,2.338,0,0,1-.813-1.885,55.4,55.4,0,0,0-4.93-25.253,2.338,2.338,0,0,1,.045-2.052,2.3,2.3,0,0,1,1.614-1.212l21.187-4.136a2.329,2.329,0,0,1,2.625,1.476,90.687,90.687,0,0,1,5.287,27.087A2.329,2.329,0,0,1,309.131,334.185Z" transform="translate(-132.998 -146.225)" fill="#ff6584"/>
        <path id="Path_94" data-name="Path 94" d="M216.234,353.566,195.046,357.7a2.3,2.3,0,0,1-1.952-.516,2.338,2.338,0,0,1-.813-1.885,55.4,55.4,0,0,0-4.93-25.253A2.338,2.338,0,0,1,187.4,328a2.3,2.3,0,0,1,1.614-1.212l21.187-4.136a2.329,2.329,0,0,1,2.625,1.476,90.686,90.686,0,0,1,5.287,27.087,2.329,2.329,0,0,1-1.877,2.356Z" transform="translate(-132.998 -146.225)" fill="#ccc"/>
        <path id="Path_95" data-name="Path 95" d="M525.743,199.914a25.408,25.408,0,0,1-19.077.663A25.059,25.059,0,0,1,490.6,178.341l-1.508.866,6.36,4.475a1.009,1.009,0,0,0,1.473-.6,13.419,13.419,0,0,1,6.536-8.5,17.511,17.511,0,0,1,11.648-1.938c8.263,1.341,15.7,6.849,20.542,13.529a36.961,36.961,0,0,1,5.776,12.056,1,1,0,0,0,1.933-.533,39.064,39.064,0,0,0-14.388-21.054c-7.181-5.332-17.235-8.555-25.682-4.251a15.583,15.583,0,0,0-8.3,10.156l1.473-.6-6.36-4.475a1.009,1.009,0,0,0-1.508.866,27.448,27.448,0,0,0,7.853,17.973,26.683,26.683,0,0,0,18.669,7.809,27.151,27.151,0,0,0,11.633-2.478c1.172-.537.154-2.265-1.012-1.731Z" transform="translate(-132.998 -146.225)" fill="#2f2e41"/>
        <path id="Path_96" data-name="Path 96" d="M244.391,451.092,223.2,455.227a2.3,2.3,0,0,1-1.952-.516,2.338,2.338,0,0,1-.813-1.885,55.4,55.4,0,0,0-4.93-25.253,2.338,2.338,0,0,1,.045-2.052,2.3,2.3,0,0,1,1.614-1.212l21.187-4.136a2.329,2.329,0,0,1,2.625,1.477,90.688,90.688,0,0,1,5.287,27.087,2.329,2.329,0,0,1-1.877,2.355Z" transform="translate(-132.998 -146.225)" fill="#f40e41"/>
      </g>
    </g>
  </g>
</svg>
