<svg xmlns="http://www.w3.org/2000/svg" width="156.665" height="58.424" viewBox="0 0 156.665 58.424">
  <g id="Knoxxi" transform="translate(-103.294 -471.06)" opacity="0.8">
    <g id="Group_29" data-name="Group 29" transform="translate(103.294 471.06)">
      <path id="Path_129" data-name="Path 129" d="M160.458,490.371a14.12,14.12,0,1,1-14.12-14.12A14.124,14.124,0,0,1,160.458,490.371Zm-14.12,10.052a10.081,10.081,0,1,0-10.11-10.052A10.075,10.075,0,0,0,146.338,500.423Z" transform="translate(-71.304 -465.125)" fill="#fff"/>
      <g id="Group_27" data-name="Group 27">
        <path id="Path_130" data-name="Path 130" d="M129.069,505.38a2.768,2.768,0,0,1-1.843-.958c-.066-.071-.129-.135-.2-.212L118.779,495l3.641-3.9,2.726-2.915h0l0,0,.388-.416a1.266,1.266,0,0,1,.909-.39h1.3v-4.068H126a4.042,4.042,0,0,0-2.825,1.147l-.214.227-3.429,3.618-10.243,10.819v-24a4.065,4.065,0,0,0-4.068-4.064h-1.931v4.064h.947a1.318,1.318,0,0,1,.984.988v33.3h4.068v-4.462l6.719-7.062,8.02,8.985a7.136,7.136,0,0,0,4.19,2.435,4.111,4.111,0,0,0,.909.1h.5V505.4C129.5,505.4,129.193,505.391,129.069,505.38Z" transform="translate(-103.294 -471.06)" fill="#fff"/>
        <path id="Path_131" data-name="Path 131" d="M114.949,486.676h0l0,.006Z" transform="translate(-89.97 -453.207)" fill="#fff"/>
      </g>
      <path id="Path_132" data-name="Path 132" d="M172.439,498.859h-1.13a1.25,1.25,0,0,1-.909-.39l-.386-.414-.009-.006-.133-.146-7.654-8.644,6.243-7.066.551-.589,0,0,.39-.414a1.241,1.241,0,0,1,.9-.392h1.3v-4.066h-1.745c-.1,0-.2.006-.294.015a4.035,4.035,0,0,0-2.533,1.132l-.212.225-1.374,1.453-1.98,2.238-3.909,4.417-3.909-4.417-1.98-2.238L152.3,478.1l-.214-.225a4.013,4.013,0,0,0-2.525-1.132c-.1-.009-.2-.015-.3-.015h-1.74v4.066h1.3a1.259,1.259,0,0,1,.909.392l.388.414,0,0,.553.589,6.235,7.066-7.645,8.644-.137.146,0,.006-.39.414a1.232,1.232,0,0,1-.9.39h-1.3v4.068h1.745c.109,0,.214-.009.324-.017a4.043,4.043,0,0,0,2.5-1.13l.214-.223.414-.442,2.908-3.275,4.927-5.534,4.927,5.534,2.917,3.275.416.442.212.223a4.032,4.032,0,0,0,2.5,1.13c.109.009.219.017.328.017h1.74v-4.068Z" transform="translate(-55.448 -464.58)" fill="#fff"/>
      <path id="Path_133" data-name="Path 133" d="M186.512,498.859h-1.13a1.258,1.258,0,0,1-.909-.39l-.384-.414-.009-.006-.135-.146L176.3,489.26l6.241-7.066.553-.589,0,0,.388-.414a1.248,1.248,0,0,1,.9-.392h1.3v-4.066h-1.747c-.1,0-.2.006-.294.015a4.024,4.024,0,0,0-2.531,1.132l-.214.225-1.372,1.453-1.98,2.238-3.909,4.417-3.911-4.417-1.98-2.238-1.376-1.453-.21-.225a4.035,4.035,0,0,0-2.531-1.132c-.1-.009-.2-.015-.3-.015h-1.743v4.066h1.3a1.259,1.259,0,0,1,.909.392l.388.414,0,0,.553.589,6.241,7.066-7.651,8.644-.139.146,0,.006-.386.414a1.258,1.258,0,0,1-.909.39h-1.3v4.068h1.745c.109,0,.219-.009.321-.017a4.033,4.033,0,0,0,2.5-1.13l.214-.223.414-.442,2.919-3.275,4.927-5.534,4.925,5.534,2.919,3.275.414.442.214.223a4.021,4.021,0,0,0,2.5,1.13c.107.009.216.017.326.017h1.745v-4.068Z" transform="translate(-40.053 -464.58)" fill="#fff"/>
      <path id="Path_134" data-name="Path 134" d="M145.121,499.46h-.576a1.3,1.3,0,0,1-.964-.941V485.343c0-6.325-5.069-9.092-9.576-9.092a12.579,12.579,0,0,0-10.583,5.073h0c0-.06,0-.118-.009-.178a4.063,4.063,0,0,0-4.055-3.89h-1.931v4.068h.943a1.318,1.318,0,0,1,.988.984v3.082h0v18.083h4.068V491.387c0-6.552,4.325-11.126,9.632-11.126,2.938,0,6.518,1.072,6.518,5.082v11.674h-.009v2.443a4.011,4.011,0,0,0,4.01,4.012h1.9V499.46Z" transform="translate(-87.669 -465.125)" fill="#fff"/>
      <g id="Group_28" data-name="Group 28" transform="translate(150.551 3.095)">
        <path id="Path_135" data-name="Path 135" d="M177.636,478.094a2.819,2.819,0,0,0,2.767-2.823,2.767,2.767,0,1,0-5.534,0A2.819,2.819,0,0,0,177.636,478.094Z" transform="translate(-174.288 -472.504)" fill="#fff"/>
        <path id="Path_136" data-name="Path 136" d="M180.584,480.615a4.062,4.062,0,0,0-4.057-3.884h-1.462l-.009-.006v.006H174.6V480.8h.941a1.3,1.3,0,0,1,.984.977v21.156h4.068V480.619Z" transform="translate(-174.598 -467.678)" fill="#fff"/>
      </g>
    </g>
    <g id="Group_30" data-name="Group 30" transform="translate(125.119 523.134)">
      <path id="Path_137" data-name="Path 137" d="M113.966,500.641a2.418,2.418,0,0,0,1.565.662.948.948,0,0,0,1.061-.9c0-1.331-2.975-1.046-2.975-2.93a1.819,1.819,0,0,1,1.983-1.717,2.514,2.514,0,0,1,1.74.619l-.39.712a2.166,2.166,0,0,0-1.35-.532,1,1,0,0,0-1.112.9c0,1.273,2.975.935,2.975,2.926a1.769,1.769,0,0,1-1.948,1.73,2.876,2.876,0,0,1-2.036-.808Z" transform="translate(-113.477 -495.752)" fill="#fff"/>
      <path id="Path_138" data-name="Path 138" d="M119.481,495.752a3.1,3.1,0,0,1,3.151,3.131,3.154,3.154,0,1,1-6.308,0A3.1,3.1,0,0,1,119.481,495.752Zm0,5.56a2.32,2.32,0,0,0,2.261-2.428,2.267,2.267,0,1,0-4.531,0A2.326,2.326,0,0,0,119.481,501.312Z" transform="translate(-110.222 -495.752)" fill="#fff"/>
      <path id="Path_139" data-name="Path 139" d="M123.383,495.752a3.171,3.171,0,0,1,2.238.808l-.429.645a2.794,2.794,0,0,0-1.775-.671,2.233,2.233,0,0,0-2.27,2.349,2.308,2.308,0,0,0,2.28,2.428,2.779,2.779,0,0,0,1.895-.8l.461.615a3.285,3.285,0,0,1-2.381.975,3.176,3.176,0,0,1-.019-6.35Z" transform="translate(-105.722 -495.752)" fill="#fff"/>
      <path id="Path_140" data-name="Path 140" d="M123.991,495.8h.862v6.14h-.862Z" transform="translate(-101.904 -495.696)" fill="#fff"/>
      <path id="Path_141" data-name="Path 141" d="M129.232,500.175h-2.315l-.609,1.766h-.887l2.21-6.14h.9l2.21,6.14h-.9Zm-1.157-3.53s-.139.557-.244.868l-.686,1.95H129l-.677-1.95c-.105-.311-.236-.868-.236-.868Z" transform="translate(-100.351 -495.696)" fill="#fff"/>
      <path id="Path_142" data-name="Path 142" d="M128.933,495.8h.859V501.2h2.75v.746h-3.609Z" transform="translate(-96.481 -495.696)" fill="#fff"/>
      <path id="Path_143" data-name="Path 143" d="M131.685,495.8h.862V501.2h2.75v.746h-3.611Z" transform="translate(-93.455 -495.696)" fill="#fff"/>
      <path id="Path_144" data-name="Path 144" d="M135.94,499.342l-2.062-3.541h.975l1.138,2.017a8.345,8.345,0,0,1,.375.776h.017s.182-.429.375-.776l1.121-2.017h.975l-2.053,3.541v2.6h-.862Z" transform="translate(-91.054 -495.696)" fill="#fff"/>
      <path id="Path_145" data-name="Path 145" d="M138.877,495.8h1.88a3.2,3.2,0,0,1,1.149.137,1.826,1.826,0,0,1-.071,3.324v.017a1.774,1.774,0,0,1,.184.281l1.305,2.381h-.975l-1.3-2.445h-1.314v2.445h-.862Zm2.1,2.951a1.023,1.023,0,0,0,1.089-1.115,1.009,1.009,0,0,0-.487-.949,1.686,1.686,0,0,0-.844-.139h-.992v2.2Z" transform="translate(-85.554 -495.696)" fill="#fff"/>
      <path id="Path_146" data-name="Path 146" d="M142.084,495.8h3.566v.748h-2.7v1.923h2.2v.75h-2.2V501.2H145.8v.746h-3.714Z" transform="translate(-82.021 -495.696)" fill="#fff"/>
      <path id="Path_147" data-name="Path 147" d="M148.963,495.8l1.2,4.507c.088.341.133.649.133.649h.017a4.039,4.039,0,0,1,.111-.649l1.132-4.507h.887l-1.61,6.14h-1l-1.061-3.984c-.105-.39-.182-.868-.182-.868h-.017s-.079.478-.184.868l-1.061,3.984h-1l-1.565-6.14h.887l1.089,4.507a6.2,6.2,0,0,1,.111.649h.017s.045-.309.131-.649l1.2-4.507Z" transform="translate(-79.128 -495.696)" fill="#fff"/>
      <path id="Path_148" data-name="Path 148" d="M152.834,500.175h-2.315l-.611,1.766h-.889l2.212-6.14h.9l2.21,6.14h-.9Zm-1.16-3.53s-.139.557-.244.868l-.686,1.95h1.862l-.682-1.95c-.1-.311-.234-.868-.234-.868Z" transform="translate(-74.418 -495.696)" fill="#fff"/>
      <path id="Path_149" data-name="Path 149" d="M152.531,495.8h1.88a3.175,3.175,0,0,1,1.147.137,1.825,1.825,0,0,1-.066,3.324v.017a2.055,2.055,0,0,1,.18.281l1.305,2.381H156l-1.292-2.445h-1.314v2.445h-.864Zm2.1,2.951a1.024,1.024,0,0,0,1.089-1.115,1.012,1.012,0,0,0-.491-.949,1.67,1.67,0,0,0-.842-.139h-.99v2.2Z" transform="translate(-70.544 -495.696)" fill="#fff"/>
      <path id="Path_150" data-name="Path 150" d="M155.738,495.8h2.038a3.07,3.07,0,1,1,0,6.14h-2.038Zm1.976,5.395a2.324,2.324,0,0,0,0-4.647H156.6V501.2Z" transform="translate(-67.031 -495.696)" fill="#fff"/>
      <path id="Path_151" data-name="Path 151" d="M159.346,495.8h.862v6.14h-.862Z" transform="translate(-63.309 -495.696)" fill="#fff"/>
      <path id="Path_152" data-name="Path 152" d="M161.135,495.8h.849l2.735,3.993c.225.33.514.887.514.887h.017s-.064-.549-.064-.887V495.8h.864v6.14H165.2l-2.737-3.984c-.227-.341-.514-.9-.514-.9h-.017s.058.549.058.9v3.984h-.857Z" transform="translate(-61.264 -495.696)" fill="#fff"/>
      <path id="Path_153" data-name="Path 153" d="M167.752,495.752a3.334,3.334,0,0,1,2.235.742l-.435.643a2.823,2.823,0,0,0-1.73-.6,2.391,2.391,0,0,0-.054,4.777,2.505,2.505,0,0,0,1.74-.767v-.887h-1v-.744h1.785V502h-.759v-.381c0-.129.009-.264.009-.264h-.017a2.64,2.64,0,0,1-1.888.75,3.04,3.04,0,0,1-3.018-3.183A3.1,3.1,0,0,1,167.752,495.752Z" transform="translate(-57.279 -495.752)" fill="#fff"/>
    </g>
  </g>
</svg>
