<svg xmlns="http://www.w3.org/2000/svg" xmlns:xlink="http://www.w3.org/1999/xlink" width="100" height="100" viewBox="0 0 100 100">
  <defs>
    <clipPath id="clip-path">
      <rect id="Rectangle_2164" data-name="Rectangle 2164" width="100" height="100" transform="translate(40 40)" fill="#fff" stroke="#707070" stroke-width="1"/>
    </clipPath>
  </defs>
  <g id="Mask_Group_19" data-name="Mask Group 19" transform="translate(-40 -40)" clip-path="url(#clip-path)">
    <g id="innovation" transform="translate(40 40)">
      <g id="Group_15232" data-name="Group 15232">
        <g id="Group_15231" data-name="Group 15231">
          <path id="Path_142" data-name="Path 142" d="M84.961,43.4a4.905,4.905,0,0,0-9.249.017H65.574V36.857h6.557a1.639,1.639,0,0,0,1.639-1.639h0V28.358a4.918,4.918,0,1,0-3.279,0v5.22H65.574V30.3a1.639,1.639,0,0,0-1.639-1.639h-3.28v-8.5a4.918,4.918,0,1,0-3.279,0v8.5H50.82V2.488A1.639,1.639,0,0,0,49.181.849h0c-20.224,0-36.066,14.642-36.066,33.333,0,8.879,3.524,20.634,9.2,30.677,1.019,1.8,2.349,3.7,3.756,5.706,2.976,4.242,6.287,9.011,6.647,13.164a4.66,4.66,0,0,0-1.969,3.891,4.87,4.87,0,0,0,1.085,3.044,5.055,5.055,0,0,0-1.5,3.629,4.923,4.923,0,0,0,4.918,4.918H63.115a4.949,4.949,0,0,0,4.919-4.98v-.053a4.9,4.9,0,0,0-1.509-3.531A5.062,5.062,0,0,0,67.613,87.5a4.7,4.7,0,0,0-4.71-4.692q-.1,0-.208,0H50.82V51.61H54.1v4.918a1.639,1.639,0,0,0,1.639,1.639h4.919v1.941a4.918,4.918,0,1,0,3.279,0V56.528A1.639,1.639,0,0,0,62.3,54.889H57.377V51.61h6.557a1.639,1.639,0,0,0,1.639-1.639h0V46.692H75.712a4.909,4.909,0,0,0,9.249-3.3ZM72.131,22.1a1.639,1.639,0,1,1-1.639,1.639A1.639,1.639,0,0,1,72.131,22.1ZM28.754,68.681c-1.361-1.94-2.645-3.772-3.586-5.437-5.33-9.434-8.775-20.842-8.775-29.063,0-16.349,13.553-29.262,31.148-30.019V15.615c-.435.033-.879.072-1.354.13a1.639,1.639,0,0,0-1.406,1.289l-.5,2.376q-.617.147-1.231.331l-1.634-1.822a1.637,1.637,0,0,0-1.864-.415A24.669,24.669,0,0,0,34.4,20.516a1.639,1.639,0,0,0-.571,1.82l.752,2.293c-.31.291-.611.594-.9.9l-2.29-.752a1.649,1.649,0,0,0-1.82.57,24.6,24.6,0,0,0-3.014,5.16,1.638,1.638,0,0,0,.415,1.864l1.823,1.633q-.184.608-.329,1.218l-2.549.509A1.639,1.639,0,0,0,24.59,37.34v5.59a1.639,1.639,0,0,0,1.318,1.607l2.549.509q.145.61.329,1.218L26.964,47.9a1.641,1.641,0,0,0-.415,1.864,24.619,24.619,0,0,0,3.014,5.16,1.647,1.647,0,0,0,1.82.57l2.29-.752c.293.309.594.611.9.9l-.752,2.289a1.641,1.641,0,0,0,.57,1.82,24.611,24.611,0,0,0,5.159,3.015,1.642,1.642,0,0,0,1.864-.415l1.634-1.822q.614.185,1.231.331l.5,2.374a1.639,1.639,0,0,0,1.406,1.29c.476.058.92.1,1.355.13v18.16H35.925C35.254,77.984,31.832,73.07,28.754,68.681Zm5.672-28.546A14.771,14.771,0,0,0,47.541,54.792V60.43l-.271-1.29a1.64,1.64,0,0,0-1.314-1.277,17.762,17.762,0,0,1-2.856-.77,1.667,1.667,0,0,0-.555-.1,1.638,1.638,0,0,0-1.221.546l-1.542,1.719a21.251,21.251,0,0,1-2.468-1.449l.712-2.166a1.641,1.641,0,0,0-.5-1.764,17.945,17.945,0,0,1-2.1-2.1,1.648,1.648,0,0,0-1.762-.5L31.5,52a21.268,21.268,0,0,1-1.45-2.469l1.721-1.542a1.642,1.642,0,0,0,.449-1.775,17.859,17.859,0,0,1-.77-2.856,1.639,1.639,0,0,0-1.293-1.316l-2.292-.458v-2.9l2.292-.458a1.639,1.639,0,0,0,1.293-1.316,17.9,17.9,0,0,1,.77-2.858,1.64,1.64,0,0,0-.45-1.775l-1.719-1.54A21.538,21.538,0,0,1,31.5,28.269l2.166.713a1.648,1.648,0,0,0,1.762-.5,18.34,18.34,0,0,1,2.1-2.1,1.638,1.638,0,0,0,.5-1.759l-.711-2.166a21.38,21.38,0,0,1,2.467-1.449l1.542,1.719a1.645,1.645,0,0,0,1.775.45,17.719,17.719,0,0,1,2.856-.77,1.638,1.638,0,0,0,1.314-1.276l.272-1.29v5.636A14.771,14.771,0,0,0,34.426,40.135ZM47.541,28.791V51.48a11.46,11.46,0,0,1,0-22.689Zm17.213,65.5a1.641,1.641,0,0,1-1.639,1.639H35.246a1.67,1.67,0,0,1-1.641-1.7q0-.029,0-.057a1.641,1.641,0,0,1,1.639-1.639H63.115a1.67,1.67,0,0,1,1.641,1.7Q64.756,94.263,64.754,94.291Zm-2.059-8.2a1.5,1.5,0,0,1,1.639,1.524A1.641,1.641,0,0,1,62.7,89.258H35.665a1.67,1.67,0,0,1-1.641-1.7q0-.029,0-.057a1.481,1.481,0,0,1,1.543-1.416l.1.007H62.7Zm-.4-23.009a1.639,1.639,0,1,1-1.639,1.639A1.639,1.639,0,0,1,62.3,63.086Zm-3.279-49.18a1.639,1.639,0,1,1-1.639,1.639A1.639,1.639,0,0,1,59.016,13.906ZM62.3,48.332H50.82V31.938H62.3Zm18.033-1.639a1.639,1.639,0,1,1,1.639-1.639A1.639,1.639,0,0,1,80.328,46.692Z" fill="#8cb777"/>
        </g>
      </g>
      <g id="Group_15234" data-name="Group 15234">
        <g id="Group_15233" data-name="Group 15233">
          <path id="Path_143" data-name="Path 143" d="M64.99,75.784a27.791,27.791,0,0,0-1.531,3.2l3.048,1.207a24.52,24.52,0,0,1,1.353-2.824Z" fill="#8cb777"/>
        </g>
      </g>
      <g id="Group_15236" data-name="Group 15236">
        <g id="Group_15235" data-name="Group 15235">
          <path id="Path_144" data-name="Path 144" d="M68.678,70.01c-.644.925-1.287,1.867-1.9,2.818l2.752,1.78c.6-.919,1.217-1.828,1.841-2.725Z" fill="#8cb777"/>
        </g>
      </g>
      <g id="Group_15238" data-name="Group 15238">
        <g id="Group_15237" data-name="Group 15237">
          <path id="Path_145" data-name="Path 145" d="M72.407,64.556c-.553.877-1.169,1.785-1.815,2.717l2.693,1.87c.676-.973,1.32-1.923,1.9-2.842Z" fill="#8cb777"/>
        </g>
      </g>
      <g id="Group_15240" data-name="Group 15240">
        <g id="Group_15239" data-name="Group 15239">
          <path id="Path_146" data-name="Path 146" d="M75.483,58.842q-.7,1.474-1.474,2.915L76.9,63.3q.8-1.506,1.541-3.05Z" fill="#8cb777"/>
        </g>
      </g>
      <g id="Group_15242" data-name="Group 15242">
        <g id="Group_15241" data-name="Group 15241">
          <path id="Path_147" data-name="Path 147" d="M78.044,52.826c-.381,1.013-.787,2.028-1.216,3.035l3.018,1.284q.67-1.578,1.267-3.167Z" fill="#8cb777"/>
        </g>
      </g>
      <g id="Group_15244" data-name="Group 15244">
        <g id="Group_15243" data-name="Group 15243">
          <path id="Path_148" data-name="Path 148" d="M85.244,33.855l-3.279.026,0,.3c0,.914-.042,1.886-.127,2.885l3.267.275c.092-1.09.139-2.153.139-3.16Z" fill="#8cb777"/>
        </g>
      </g>
      <g id="Group_15246" data-name="Group 15246">
        <g id="Group_15245" data-name="Group 15245">
          <path id="Path_149" data-name="Path 149" d="M84.409,26.876l-3.192.746a28.346,28.346,0,0,1,.546,3.107l3.256-.388A31.779,31.779,0,0,0,84.409,26.876Z" fill="#8cb777"/>
        </g>
      </g>
      <g id="Group_15248" data-name="Group 15248">
        <g id="Group_15247" data-name="Group 15247">
          <path id="Path_150" data-name="Path 150" d="M82.053,20.252l-2.947,1.434a28.663,28.663,0,0,1,1.223,2.91l3.088-1.1A31.545,31.545,0,0,0,82.053,20.252Z" fill="#8cb777"/>
        </g>
      </g>
      <g id="Group_15250" data-name="Group 15250">
        <g id="Group_15249" data-name="Group 15249">
          <path id="Path_151" data-name="Path 151" d="M78.3,14.315l-2.568,2.04a29.835,29.835,0,0,1,1.833,2.577l2.771-1.751A33.076,33.076,0,0,0,78.3,14.315Z" fill="#8cb777"/>
        </g>
      </g>
      <g id="Group_15252" data-name="Group 15252">
        <g id="Group_15251" data-name="Group 15251">
          <path id="Path_152" data-name="Path 152" d="M73.39,9.313,71.3,11.839a30.958,30.958,0,0,1,2.336,2.144l2.337-2.3A34.414,34.414,0,0,0,73.39,9.313Z" fill="#8cb777"/>
        </g>
      </g>
      <g id="Group_15254" data-name="Group 15254">
        <g id="Group_15253" data-name="Group 15253">
          <path id="Path_153" data-name="Path 153" d="M67.589,5.4,66.03,8.29c.936.506,1.853,1.06,2.724,1.646l1.83-2.722C69.626,6.57,68.619,5.962,67.589,5.4Z" fill="#8cb777"/>
        </g>
      </g>
      <g id="Group_15256" data-name="Group 15256">
        <g id="Group_15255" data-name="Group 15255">
          <path id="Path_154" data-name="Path 154" d="M61.163,2.685,60.171,5.81c1.021.323,2.026.695,2.987,1.1L64.44,3.9C63.385,3.447,62.282,3.04,61.163,2.685Z" fill="#8cb777"/>
        </g>
      </g>
      <g id="Group_15258" data-name="Group 15258">
        <g id="Group_15257" data-name="Group 15257">
          <path id="Path_155" data-name="Path 155" d="M54.362,1.18l-.419,3.253c1.057.136,2.116.32,3.145.549l.709-3.2C56.672,1.532,55.516,1.33,54.362,1.18Z" fill="#8cb777"/>
        </g>
      </g>
      <g id="Group_15260" data-name="Group 15260">
        <g id="Group_15259" data-name="Group 15259">
          <rect id="Rectangle_2166" data-name="Rectangle 2166" width="3.279" height="3.279" transform="translate(3.279 89.315)" fill="#8cb777"/>
        </g>
      </g>
      <g id="Group_15262" data-name="Group 15262">
        <g id="Group_15261" data-name="Group 15261">
          <rect id="Rectangle_2167" data-name="Rectangle 2167" width="3.279" height="3.279" transform="translate(3.279 95.873)" fill="#8cb777"/>
        </g>
      </g>
      <g id="Group_15264" data-name="Group 15264">
        <g id="Group_15263" data-name="Group 15263">
          <rect id="Rectangle_2168" data-name="Rectangle 2168" width="3.279" height="3.279" transform="translate(6.557 92.594)" fill="#8cb777"/>
        </g>
      </g>
      <g id="Group_15266" data-name="Group 15266">
        <g id="Group_15265" data-name="Group 15265">
          <rect id="Rectangle_2169" data-name="Rectangle 2169" width="3.279" height="3.279" transform="translate(0 92.594)" fill="#8cb777"/>
        </g>
      </g>
      <g id="Group_15268" data-name="Group 15268">
        <g id="Group_15267" data-name="Group 15267">
          <rect id="Rectangle_2170" data-name="Rectangle 2170" width="3.279" height="3.279" transform="translate(93.443 0.791)" fill="#8cb777"/>
        </g>
      </g>
      <g id="Group_15270" data-name="Group 15270">
        <g id="Group_15269" data-name="Group 15269">
          <rect id="Rectangle_2171" data-name="Rectangle 2171" width="3.279" height="3.279" transform="translate(93.443 7.348)" fill="#8cb777"/>
        </g>
      </g>
      <g id="Group_15272" data-name="Group 15272">
        <g id="Group_15271" data-name="Group 15271">
          <rect id="Rectangle_2172" data-name="Rectangle 2172" width="3.279" height="3.279" transform="translate(96.721 4.069)" fill="#8cb777"/>
        </g>
      </g>
      <g id="Group_15274" data-name="Group 15274">
        <g id="Group_15273" data-name="Group 15273">
          <rect id="Rectangle_2173" data-name="Rectangle 2173" width="3.279" height="3.279" transform="translate(90.164 4.069)" fill="#8cb777"/>
        </g>
      </g>
    </g>
  </g>
</svg>
