<svg xmlns="http://www.w3.org/2000/svg" xmlns:xlink="http://www.w3.org/1999/xlink" width="100" height="100" viewBox="0 0 100 100">
  <defs>
    <clipPath id="clip-path">
      <rect id="Rectangle_2165" data-name="Rectangle 2165" width="100" height="100" transform="translate(40 40)" fill="#fff" stroke="#707070" stroke-width="1"/>
    </clipPath>
  </defs>
  <g id="Mask_Group_21" data-name="Mask Group 21" transform="translate(-40 -40)" clip-path="url(#clip-path)">
    <g id="loop" transform="translate(40 40)">
      <path id="Path_159" data-name="Path 159" d="M85.355,14.645A49.672,49.672,0,0,0,50,0V5.882A44.125,44.125,0,1,1,15.014,23.128a8.84,8.84,0,1,0-4.706-3.53,50,50,0,1,0,75.047-4.954Zm-67.708-2.88a2.941,2.941,0,1,1-2.941,2.941,2.945,2.945,0,0,1,2.941-2.941Z" fill="#8cb777"/>
      <path id="Path_160" data-name="Path 160" d="M11.765,50A17.667,17.667,0,0,0,29.412,67.647c4.169,0,9.172-2.649,15.295-8.1,2.111-1.879,3.957-3.745,5.293-5.164,1.337,1.419,3.182,3.285,5.293,5.164,6.123,5.448,11.126,8.1,15.295,8.1a17.647,17.647,0,1,0,0-35.294c-4.169,0-9.172,2.649-15.295,8.1-2.111,1.879-3.957,3.745-5.293,5.164-1.337-1.419-3.182-3.285-5.293-5.164-6.123-5.448-11.126-8.1-15.295-8.1A17.667,17.667,0,0,0,11.765,50ZM70.588,38.235a11.765,11.765,0,1,1,0,23.529c-4.355,0-11.881-6.588-16.658-11.765C58.708,44.823,66.233,38.235,70.588,38.235Zm-41.176,0c4.355,0,11.881,6.588,16.658,11.765-4.777,5.177-12.3,11.765-16.658,11.765a11.765,11.765,0,1,1,0-23.529Z" fill="#8cb777"/>
    </g>
  </g>
</svg>
