<svg xmlns="http://www.w3.org/2000/svg" xmlns:xlink="http://www.w3.org/1999/xlink" width="674" height="750" viewBox="0 0 674 750">
  <defs>
    <clipPath id="clip-path">
      <rect id="Rectangle_2197" data-name="Rectangle 2197" width="674" height="750" rx="8" transform="translate(278 1422)" fill="rgba(0,0,0,0.06)"/>
    </clipPath>
  </defs>
  <g id="Group_15844" data-name="Group 15844" transform="translate(-278 -1422)">
    <rect id="Rectangle_2159" data-name="Rectangle 2159" width="674" height="750" rx="8" transform="translate(278 1422)" fill="rgba(0,0,0,0.06)"/>
    <g id="Mask_Group_24" data-name="Mask Group 24" clip-path="url(#clip-path)">
      <g id="undraw_mobile_development_8gyo" transform="translate(278 1576.613)">
        <path id="Path_193" data-name="Path 193" d="M231.163,409.655s8.2,13.007,5.272,16.528,21.973,3.61,21.973,3.61-3.741-18.921-2.64-23.275Z" transform="translate(-118.405 -121.167)" fill="#ffb8b8"/>
        <circle id="Ellipse_106" data-name="Ellipse 106" cx="25.715" cy="25.715" r="25.715" transform="translate(100.148 241.772)" fill="#2f2e41"/>
        <path id="Path_194" data-name="Path 194" d="M186.344,406.868v15.245l15.244-3.176-1.27-10.8Z" fill="#ffb8b8"/>
        <path id="Path_195" data-name="Path 195" d="M358.74,530.576l42.557,6.987-10.8,15.879s-29.853-10.163-37.476-10.163S358.74,530.576,358.74,530.576Z" transform="translate(-118.405 -121.167)" fill="#ffb8b8"/>
        <path id="Path_196" data-name="Path 196" d="M262.193,500.087s31.759-36.84,41.922-34.935,14.609,13.339,14.609,13.339l5.717,56.531s-20.326,1.906-20.326,0-3.811-42.557-3.811-42.557S270.45,558.524,254.571,514.7Z" transform="translate(-118.405 -121.167)" fill="#d0cde1"/>
        <path id="Path_197" data-name="Path 197" d="M210.743,524.859s.635,33.277,19.691,35.183S270.45,545.82,270.45,545.82l34.3-16.432s40.651,21.514,52.72,15.8c0,0,12.7-13.339,4.446-17.15s-.635,0-.635,0l-48.909-25.407s-9.528-2.541-26.042,4.446-38.746,10.163-38.746,10.163Z" transform="translate(-118.405 -121.167)" fill="#d0cde1"/>
        <circle id="Ellipse_107" data-name="Ellipse 107" cx="19.055" cy="19.055" r="19.055" transform="translate(105.041 256.966)" fill="#ffb8b8"/>
        <path id="Path_198" data-name="Path 198" d="M269.815,450.544l-1.27,26.678s.635,34.935-5.081,37.476c-2.89,1.283-8.7,3.862-14.063,6.682-4.027,2.109-7.806,4.345-9.915,6.269a7.111,7.111,0,0,0-1.429,1.658c-2.541,4.446-19.055,3.811-22.866.635s-1.27,3.811-4.446,5.081c-3.074,1.232-7.336-8.842-4.726-23.883.083-.5.178-1.01.279-1.524,2.915-14.577-1.664-49.493-.959-62.984a23.741,23.741,0,0,1,.324-3.074c1.906-10.163,26.22-30.844,30.768-22.034,5.6,10.874,18.471.94,20.681-4.008,12.7-.635,17.15,14.609,17.15,14.609Z" transform="translate(-118.405 -121.167)" fill="#8f1742"/>
        <path id="Path_199" data-name="Path 199" d="M321.264,537.563s-10.163,3.811-13.339,3.176a5.493,5.493,0,0,0-6.352,5.717c0,3.811-3.811,12.7,1.906,13.339s29.218-.635,34.3,1.27c0,0,22.866.635,20.961-8.893s-11.433-8.893-11.433-8.893S321.264,542.009,321.264,537.563Z" transform="translate(-118.405 -121.167)" fill="#2f2e41"/>
        <path id="Path_200" data-name="Path 200" d="M395.58,539.469s1.27-3.811,3.176-3.811,17.15,2.541,19.055,1.906,24.137-1.906,20.326,8.893-16.515,12.068-16.515,12.068-22.866-2.541-26.042-1.906-14.609,0-12.7-3.176S396.851,544.55,395.58,539.469Z" transform="translate(-118.405 -121.167)" fill="#2f2e41"/>
        <path id="Path_201" data-name="Path 201" d="M337.763,448.234l3.485,14.374a.9.9,0,0,1-.017.485l-15.807,49.4a.9.9,0,0,1-1.747-.172l-2.187-19.243a.9.9,0,0,1,.038-.38l14.509-44.529a.9.9,0,0,1,1.726.067Z" transform="translate(-118.405 -121.167)" fill="#3f3d56"/>
        <path id="Path_202" data-name="Path 202" d="M218.075,328.28l3.217,12.333-13.942,45.043-3.217-13.941Z" fill="#fff"/>
        <path id="Path_203" data-name="Path 203" d="M266.236,516.475c.536,1.609,55.767-.536,56.3-1.072a11.641,11.641,0,0,0,1.18-2.145c.5-1.073.965-2.145.965-2.145l-2.145-17.363-54.694-1.941s-1.367,14.714-1.646,21.449A16.086,16.086,0,0,0,266.236,516.475Z" transform="translate(-118.405 -121.167)" fill="#3f3d56"/>
        <path id="Path_204" data-name="Path 204" d="M197.162,374.931l1.072,15.015h-24.13V374.931Z" opacity="0.1"/>
        <path id="Path_205" data-name="Path 205" d="M166.062,379.758l.144-.029-.681,6.463H152.12v-6.434Z" opacity="0.1"/>
        <path id="Path_206" data-name="Path 206" d="M266.236,516.475c.536,1.609,55.767-.536,56.3-1.072a11.641,11.641,0,0,0,1.18-2.145H266.2A16.086,16.086,0,0,0,266.236,516.475Z" transform="translate(-118.405 -121.167)" opacity="0.1"/>
        <circle id="Ellipse_108" data-name="Ellipse 108" cx="7.166" cy="7.166" r="7.166" transform="translate(122.957 232.209)" fill="#2f2e41"/>
        <path id="Path_207" data-name="Path 207" d="M246.374,368.343s-7.322,12.179-24.348,16.738-.139,30.144-.139,30.144-6.141-9.3,2.716-19.157S247.714,379.48,246.374,368.343Z" transform="translate(-118.405 -121.167)" fill="#2f2e41"/>
        <path id="Path_208" data-name="Path 208" d="M249.4,521.379c-1.569,2.966-3.411,6.047-3.722,7.292-.21.845-2.534.356-6.193-1.023-7.336-2.776-20.053-9.134-31.918-15.492a10.024,10.024,0,0,1-1.55-1.016c.083-.5.178-1.01.279-1.524,2.915-14.577-1.664-49.493-.959-62.984l5.405-1.8,10.8,10.163v43.192s27.948,15.244,29.853,16.515C252.367,515.344,251.026,518.3,249.4,521.379Z" transform="translate(-118.405 -121.167)" opacity="0.1"/>
        <path id="Path_209" data-name="Path 209" d="M272.991,486.749l17.15,8.893s10.163-10.8,16.515-2.541-18.42,10.8-18.42,10.8-21.6-5.081-22.231-12.068S272.991,486.749,272.991,486.749Z" transform="translate(-118.405 -121.167)" fill="#ffb8b8"/>
        <path id="Path_210" data-name="Path 210" d="M244.408,510.25l10.163,2.541s11.433-13.974,23.5-8.893-15.244,15.244-15.244,15.244-14.609,7.622-20.326,1.27S244.408,510.25,244.408,510.25Z" transform="translate(-118.405 -121.167)" fill="#ffb8b8"/>
        <path id="Path_211" data-name="Path 211" d="M266.639,426.407c.635.635,7.622,5.717,7.622,5.717s1.906,24.137-.635,29.218-4.446,5.081-2.541,7.622,4.446.635,1.906,5.081-5.081,3.811-3.176,5.717,1.27,2.541,1.27,2.541l7.622,6.352s-4.676,7.448-10.6,6.9-11-29.131-11-29.131Z" transform="translate(-118.405 -121.167)" fill="#8f1742"/>
        <path id="Path_212" data-name="Path 212" d="M210.743,441.651l-5.717,1.906s-15.244,55.9,2.541,65.423,37.476,19.055,38.111,16.515,7.622-12.7,5.717-13.974-29.853-16.515-29.853-16.515V451.814Z" transform="translate(-118.405 -121.167)" fill="#8f1742"/>
        <path id="Path_213" data-name="Path 213" d="M100.913,343.668l-1.27,30.489,33.664,15.88-31.124-15.88Z" opacity="0.1"/>
        <path id="Path_214" data-name="Path 214" d="M709.218,222.692v49.852a1.743,1.743,0,0,1-1.738,1.738h-1.237V533.977a27.1,27.1,0,0,1-27.1,27.1H516.877a27.091,27.091,0,0,1-27.089-27.094V283.39h-.9a1.228,1.228,0,0,1-1.23-1.222V253.8a1.229,1.229,0,0,1,1.23-1.23h.9V241.88h-.9a1.288,1.288,0,0,1-1.283-1.29V212.6a1.286,1.286,0,0,1,1.283-1.283h.9V196.734h-.918a1.137,1.137,0,0,1-1.139-1.139V180.324a1.143,1.143,0,0,1,1.139-1.146h.918V148.256a27.09,27.09,0,0,1,27.088-27.089H679.146a27.1,27.1,0,0,1,27.1,27.089v72.7h1.237a1.743,1.743,0,0,1,1.738,1.738Z" transform="translate(-118.405 -121.167)" fill="#3f3d56"/>
        <rect id="Rectangle_2198" data-name="Rectangle 2198" width="30.226" height="6.138" rx="1.929" transform="translate(459.127 13.895)" fill="#e6e8ec"/>
        <circle id="Ellipse_109" data-name="Ellipse 109" cx="3.481" cy="3.481" r="3.481" transform="translate(493.924 13.483)" fill="#e6e8ec"/>
        <path id="Path_215" data-name="Path 215" d="M693.267,153.614V536.223a17.192,17.192,0,0,1-17.192,17.184H520.745a17.162,17.162,0,0,1-17.192-17.184V153.614a17.191,17.191,0,0,1,17.192-17.192h23.248v2.983a14.156,14.156,0,0,0,14.155,14.156h79A14.156,14.156,0,0,0,651.3,139.406v-2.983h24.774A17.186,17.186,0,0,1,693.267,153.614Z" transform="translate(-118.405 -121.167)" fill="#fff"/>
        <rect id="Rectangle_2199" data-name="Rectangle 2199" width="157.874" height="20.493" transform="translate(401.384 267.14)" fill="#e6e6e6"/>
        <rect id="Rectangle_2200" data-name="Rectangle 2200" width="157.874" height="20.493" transform="translate(401.384 303.572)" fill="#e6e6e6"/>
        <rect id="Rectangle_2201" data-name="Rectangle 2201" width="157.874" height="20.493" transform="translate(401.384 340.005)" fill="#e6e6e6"/>
        <circle id="Ellipse_110" data-name="Ellipse 110" cx="15.18" cy="15.18" r="15.18" transform="translate(526.621 53.858)" fill="#8f1742"/>
        <rect id="Rectangle_2202" data-name="Rectangle 2202" width="157.874" height="104.743" transform="translate(401.068 119.892)" fill="#e6e6e6"/>
        <path id="Path_216" data-name="Path 216" d="M582.339,299.951c4.61,17.04,20.4,27.593,20.4,27.593s8.315-17.074,3.706-34.114-20.4-27.593-20.4-27.593S577.729,282.911,582.339,299.951Z" transform="translate(-118.405 -121.167)" fill="#3f3d56"/>
        <path id="Path_217" data-name="Path 217" d="M589.112,296.289c12.649,12.313,14.194,31.241,14.194,31.241s-18.963-1.035-31.612-13.348S557.5,282.941,557.5,282.941,576.463,283.976,589.112,296.289Z" transform="translate(-118.405 -121.167)" fill="#8f1742"/>
        <path id="Path_218" data-name="Path 218" d="M624.273,299.951c-4.61,17.04-20.4,27.593-20.4,27.593s-8.315-17.074-3.706-34.114,20.4-27.593,20.4-27.593S628.883,282.911,624.273,299.951Z" transform="translate(-118.405 -121.167)" fill="#3f3d56"/>
        <path id="Path_219" data-name="Path 219" d="M617.5,296.289c-12.649,12.313-14.194,31.241-14.194,31.241s18.963-1.035,31.612-13.348,14.194-31.241,14.194-31.241S630.148,283.976,617.5,296.289Z" transform="translate(-118.405 -121.167)" fill="#8f1742"/>
        <rect id="Rectangle_2203" data-name="Rectangle 2203" width="674" height="1.701" transform="translate(0 439.074)" fill="#3f3d56"/>
      </g>
    </g>
  </g>
</svg>
