<svg xmlns="http://www.w3.org/2000/svg" xmlns:xlink="http://www.w3.org/1999/xlink" width="100" height="100" viewBox="0 0 100 100">
  <defs>
    <clipPath id="clip-path">
      <circle id="Ellipse_96" data-name="Ellipse 96" cx="50" cy="50" r="50" transform="translate(149 0)" fill="#2a2e43"/>
    </clipPath>
  </defs>
  <g id="Mask_Group_22" data-name="Mask Group 22" transform="translate(-149 0)" clip-path="url(#clip-path)">
    <g id="Object" transform="translate(138.582 -10.522)">
      <path id="Path_161" data-name="Path 161" d="M28.469,46.808a.446.446,0,0,0,.446.519h2.993a.446.446,0,0,0,.432-.357A17.916,17.916,0,0,1,46.526,32.986a.44.44,0,0,0,.357-.432V29.59a.446.446,0,0,0-.518-.446A21.674,21.674,0,0,0,28.469,46.808Z" fill="#cdd0d2" opacity="0.8"/>
      <path id="Path_162" data-name="Path 162" d="M68.078,52.876a.44.44,0,0,0-.433.371A17.884,17.884,0,0,1,53.2,67.685a.439.439,0,0,0-.366.432v2.967a.446.446,0,0,0,.513.446A21.65,21.65,0,0,0,71.529,53.388a.45.45,0,0,0-.446-.511Z" transform="translate(20.836 20.74)" fill="#cdd0d2" opacity="0.8"/>
      <path id="Path_163" data-name="Path 163" d="M61.17,52.876a.446.446,0,0,0-.425.328,11.188,11.188,0,0,1-7.6,7.665.446.446,0,0,0-.32.422v2.977a.446.446,0,0,0,.542.439,14.86,14.86,0,0,0,11.238-11.3.446.446,0,0,0-.44-.535Z" transform="translate(15.281 15.293)" fill="#f40e41"/>
      <path id="Path_164" data-name="Path 164" d="M60.308,95.2h0a2.657,2.657,0,0,0,1.878-.761,2.609,2.609,0,0,0,.786-1.87V71.8a11.375,11.375,0,0,0,8.471-8.351l21.3-.033a2.665,2.665,0,0,0,2.674-2.647,2.61,2.61,0,0,0-.791-1.876,2.675,2.675,0,0,0-1.891-.768l-21.292.042a11.338,11.338,0,0,0-8.471-8.33V28.181a2.665,2.665,0,0,0-5.33.013V49.851a11.382,11.382,0,0,0-8.458,8.35l-21.106.041a2.655,2.655,0,0,0-2.662,2.639,2.6,2.6,0,0,0,.784,1.867,2.652,2.652,0,0,0,1.879.761l21.1-.033A11.346,11.346,0,0,0,57.64,71.8V92.56A2.665,2.665,0,0,0,60.308,95.2ZM52.22,60.977a8.2,8.2,0,1,1,8.2,8.2,8.2,8.2,0,0,1-8.2-8.2Z" transform="translate(0 0)" fill="#eceff1" opacity="0.8"/>
      <path id="Path_165" data-name="Path 165" d="M53.34,29.1a.451.451,0,0,0-.512.446v2.964a.446.446,0,0,0,.367.433,17.833,17.833,0,0,1,14.4,14.1.439.439,0,0,0,.432.363h3.015a.446.446,0,0,0,.446-.516A21.581,21.581,0,0,0,53.34,29.1Z" transform="translate(20.836)" fill="#cdd0d2"/>
      <path id="Path_166" data-name="Path 166" d="M52.829,36.351v2.98a.446.446,0,0,0,.321.422,11.177,11.177,0,0,1,7.5,7.337.446.446,0,0,0,.421.316H64.1a.446.446,0,0,0,.437-.545A14.817,14.817,0,0,0,53.371,35.912a.446.446,0,0,0-.542.439Z" transform="translate(15.253 5.751)" fill="#f40e41"/>
      <path id="Path_167" data-name="Path 167" d="M39.209,53.51a.446.446,0,0,0-.422-.316H35.775a.446.446,0,0,0-.438.544,14.825,14.825,0,0,0,11.245,11,.446.446,0,0,0,.535-.438V61.329a.44.44,0,0,0-.324-.423A11.18,11.18,0,0,1,39.209,53.51Z" transform="translate(5.524 15.35)" fill="#f40e41"/>
      <path id="Path_168" data-name="Path 168" d="M32.311,53.557a.44.44,0,0,0-.433-.363h-3a.446.446,0,0,0-.446.515A21.6,21.6,0,0,0,46.613,71.543a.446.446,0,0,0,.512-.446V68.135a.44.44,0,0,0-.368-.433A17.844,17.844,0,0,1,32.311,53.557Z" transform="translate(0 20.74)" fill="#cdd0d2" opacity="0.8"/>
      <path id="Path_169" data-name="Path 169" d="M46.337,35.96A14.881,14.881,0,0,0,35.368,46.778a.446.446,0,0,0,.436.549h3.03a.446.446,0,0,0,.421-.31,11.215,11.215,0,0,1,7.314-7.206.44.44,0,0,0,.312-.417v-3a.446.446,0,0,0-.544-.438Z" transform="translate(5.501 5.758)" fill="#f40e41"/>
      <path id="Path_170" data-name="Path 170" d="M44.242,50.423A5.758,5.758,0,1,0,50,44.666,5.758,5.758,0,0,0,44.242,50.423Z" transform="translate(10.418 10.61)" fill="#eceff1"/>
    </g>
  </g>
</svg>
