<svg xmlns="http://www.w3.org/2000/svg" width="118.28" height="88.682" viewBox="0 0 118.28 88.682">
  <g id="Tema_1st" data-name="Tema 1st" transform="translate(-369.111 -407.049)">
    <path id="Path_28610" data-name="Path 28610" d="M427.151,411.322c-1.8,1.536-3.609,3.064-5.406,4.611q-3.8,3.267-7.587,6.559a2.9,2.9,0,0,1-2.1.752c-2.159-.04-4.318,0-6.466-.023a1.058,1.058,0,0,0-1.221.864.963.963,0,0,0-.013.139c-1.339,6.733-2.717,13.454-4.079,20.185-.633,3.121-1.271,6.24-1.88,9.368a1.254,1.254,0,0,1-1.344,1.163l-.091-.01q-8.547-.018-17.091,0c-.95,0-1.184-.332-1-1.261.867-4.167,1.673-8.348,2.515-12.518,1.121-5.567,2.227-11.128,3.4-16.694.224-1.066-.166-1.259-1.1-1.247-2.925.033-5.852-.023-8.775.032-1,.017-1.193-.372-1.021-1.239.907-4.629,1.814-9.26,2.677-13.9.143-.767.5-1.06,1.231-1.045h67.678c.267,0,.541.02.811,0,1.027-.091,1.251.375,1.06,1.329q-1.432,7.105-2.784,14.229a2.45,2.45,0,0,1-1.4,1.943,32.165,32.165,0,0,0-3.094,1.79,1.694,1.694,0,0,0-.831,2.247,1.719,1.719,0,0,0,.186.316q.943,1.716,1.982,3.378a1,1,0,0,1-.048,1.418.979.979,0,0,1-.106.086c-.762.7-1.495,1.445-2.191,2.207a.967.967,0,0,1-1.35.216l-.061-.05c-1.151-.7-2.342-1.337-3.5-2.006a1.729,1.729,0,0,0-2.42.362,1.751,1.751,0,0,0-.166.264c-.7,1.1-1.359,2.234-1.953,3.392a1.787,1.787,0,0,0,.472,2.482,1.739,1.739,0,0,0,.372.194c1.033.6,2.053,1.214,3.108,1.771a1.2,1.2,0,0,1,.791,1.508,1.051,1.051,0,0,1-.065.166,11.733,11.733,0,0,0-.623,2.342c-.166,1.188-.819,1.495-1.913,1.425s-2.159-.027-3.232,0c-1.495.023-2.081.575-2.118,2.094a34.322,34.322,0,0,0,.063,3.794c.065.746-.191.98-.864.98H421.1c-.89,0-1.118-.367-.94-1.228q2.344-11.271,4.6-22.552c.512-2.52,1-5.041,1.563-7.551.153-.706.073-.97-.726-.937-1.384.061-2.77.037-4.152,0-1.1-.017-1.2-.191-.6-1.1q3.1-4.787,6.224-9.557c.1-.158.179-.332.271-.5Z" transform="translate(0.693 0)" fill="#fff"/>
    <path id="Path_28611" data-name="Path 28611" d="M471.6,453.017c-2.189,0-4.378-.02-6.566,0-.967,0-1.38-.249-1.217-1.329a13.839,13.839,0,0,0-12.063-15.447,14,14,0,0,0-3.772.038,13.653,13.653,0,0,0-11.653,15.427l.013.083c.13.967-.216,1.226-1.095,1.222q-6.622,0-13.246-.02c-1.528,0-1.784-.332-1.791-1.847V448.4c.023-1.266.311-1.565,1.561-1.588q2-.037,4.031,0a1.194,1.194,0,0,0,1.35-1.008c0-.022,0-.043,0-.065.276-1.266.634-2.511,1-3.759a1.144,1.144,0,0,0-.644-1.495h-.022q-1.722-.925-3.4-1.932c-1.118-.664-1.236-1.045-.591-2.2.445-.8.889-1.6,1.362-2.39.791-1.329,1.071-1.389,2.375-.664,1.071.593,2.149,1.183,3.192,1.827a1.362,1.362,0,0,0,1.907-.189l.032-.04q1.3-1.375,2.686-2.671a1.163,1.163,0,0,0,.209-1.631c-.664-1.153-1.329-2.325-2.025-3.46a1.329,1.329,0,0,1,.086-1.874,1.347,1.347,0,0,1,.5-.284c.879-.472,1.722-1,2.6-1.478,1.141-.62,1.528-.5,2.206.664.638,1.086,1.3,2.159,1.889,3.274a1.259,1.259,0,0,0,1.606.757c.028-.01.055-.02.081-.032,1.211-.364,2.433-.706,3.671-1a1.2,1.2,0,0,0,1.073-1.32v-.05c-.02-1.3,0-2.594,0-3.89s.332-1.638,1.624-1.661c1.038-.017,2.076.026,3.111,0a1.232,1.232,0,0,1,1.437.985,1.16,1.16,0,0,1,.01.379q.055,2.058.043,4.119a1.277,1.277,0,0,0,1.075,1.455h.045c1.234.272,2.452.633,3.669,1a1.251,1.251,0,0,0,1.614-.7c.645-1.163,1.352-2.325,2-3.48.472-.869,1.038-1.154,1.95-.59s1.922,1.114,2.888,1.661a1.216,1.216,0,0,1,.5,1.993c-.714,1.129-1.329,2.325-2.031,3.46a1.186,1.186,0,0,0,.123,1.679l.052.041q1.462,1.379,2.849,2.834a1.149,1.149,0,0,0,1.606.206l.027-.02c1.148-.693,2.335-1.329,3.488-2.011.89-.535,1.568-.457,2.085.517s1.1,1.922,1.651,2.883a1.141,1.141,0,0,1-.5,1.8c-1.181.638-2.325,1.352-3.506,1.993a1.385,1.385,0,0,0-.774,1.8c.332,1.178.648,2.354.945,3.536a1.277,1.277,0,0,0,1.412,1.121h.053c1.329-.05,2.689,0,4.031,0a1.289,1.289,0,0,1,1.5,1.445c0,1.031.026,2.061,0,3.089-.028,1.3-.317,1.624-1.653,1.661-2.226.04-4.453,0-6.674,0Z" transform="translate(7.461 1.917)" fill="#fff"/>
    <path id="Path_28612" data-name="Path 28612" d="M447.616,450.544c-3.388,0-6.775-.023-10.163,0-.9,0-1.261-.3-1.422-1.211a11.887,11.887,0,1,1,23.526-3.427q.066.458.1.92c.017.153.023.309.032.462.12,2.923-.178,3.242-3.06,3.242Z" transform="translate(9.752 4.186)" fill="#fff"/>
    <g id="name" transform="translate(369.111 457.462)">
      <g id="Group_15022" data-name="Group 15022" transform="translate(0 0)">
        <path id="Path_28613" data-name="Path 28613" d="M369.113,451.22h11.275v2.844h-3.863V465.8h-3.551V454.068h-3.862Z" transform="translate(-369.111 -451.014)" fill="#fff"/>
        <path id="Path_28614" data-name="Path 28614" d="M389.44,454.067h-5.375v2.95h4.755v2.747h-4.755v3.2h5.375v2.84h-8.931V451.22h8.931Z" transform="translate(-367.446 -451.014)" fill="#fff"/>
        <path id="Path_28615" data-name="Path 28615" d="M390.312,451.22h4.2l4.086,10.1,4.049-10.094h4.181V465.8h-3.553V457.06l-3.254,8.743h-2.882l-3.28-8.765V465.8h-3.551Z" transform="translate(-366.016 -451.014)" fill="#fff"/>
        <path id="Path_28616" data-name="Path 28616" d="M416.147,463.226H410.7l-.872,2.574h-3.717l5.275-14.58H415.5l5.273,14.581h-3.76Zm-2.722-8.079-1.786,5.337h3.586Z" transform="translate(-363.708 -451.013)" fill="#fff"/>
        <path id="Path_28617" data-name="Path 28617" d="M424.147,451.22h9.491v2.844H427.7v3.074h4.445V459.9H427.7v5.9h-3.551Z" transform="translate(-361.076 -451.014)" fill="#fff"/>
        <path id="Path_28618" data-name="Path 28618" d="M434.059,451.22h3.556V465.8h-3.551Z" transform="translate(-359.629 -451.014)" fill="#fff"/>
        <path id="Path_28619" data-name="Path 28619" d="M445.364,451.22c3.571,0,5.358,2.055,5.358,4.591a4.242,4.242,0,0,1-3.24,4.215l3.365,5.777h-4.008l-3.028-5.5h-.852v5.5H439.4V451.22Zm-.209,2.956h-2.2V457.8h2.2c1.329,0,1.953-.686,1.953-1.827,0-1.083-.62-1.789-1.947-1.789Z" transform="translate(-358.851 -451.014)" fill="#fff"/>
        <path id="Path_28620" data-name="Path 28620" d="M456.547,465.974c-3.136,0-5.587-1.553-5.69-4.508h3.78a1.671,1.671,0,0,0,1.678,1.661,1.207,1.207,0,0,0,.13,0c1.036,0,1.7-.52,1.7-1.37,0-2.7-7.285-1.246-7.248-6.418,0-2.762,2.267-4.3,5.315-4.3,3.177,0,5.315,1.578,5.461,4.36h-3.842a1.58,1.58,0,0,0-1.636-1.518h-.047a1.294,1.294,0,0,0-1.48,1.075,1.27,1.27,0,0,0-.015.254c0,2.535,7.207,1.392,7.207,6.272C461.864,463.939,459.954,465.974,456.547,465.974Z" transform="translate(-357.176 -451.04)" fill="#fff"/>
        <path id="Path_28621" data-name="Path 28621" d="M461.677,451.22h11.276v2.844h-3.862V465.8h-3.554V454.068h-3.863Z" transform="translate(-355.598 -451.014)" fill="#fff"/>
      </g>
      <g id="Group_15023" data-name="Group 15023" transform="translate(0.002 19.501)">
        <path id="Path_28622" data-name="Path 28622" d="M402.318,473.421a3.25,3.25,0,1,0,3,3.478c0-.085.01-.166.01-.254a2.96,2.96,0,0,0-2.684-3.214A3.177,3.177,0,0,0,402.318,473.421Z" transform="translate(-364.774 -467.274)" fill="#fff"/>
        <path id="Path_28623" data-name="Path 28623" d="M418.048,477.9h2.873l-1.432-4.091Z" transform="translate(-361.968 -467.217)" fill="#fff"/>
        <path id="Path_28624" data-name="Path 28624" d="M412.562,473.322h-1.6V476.2h1.6c1.126,0,1.633-.545,1.633-1.432S413.688,473.322,412.562,473.322Z" transform="translate(-363.001 -467.288)" fill="#fff"/>
        <path id="Path_28625" data-name="Path 28625" d="M428.47,474.78c0-.887-.5-1.457-1.633-1.457h-1.6v2.951h1.6A1.421,1.421,0,0,0,428.47,474.78Z" transform="translate(-360.918 -467.287)" fill="#fff"/>
        <path id="Path_28626" data-name="Path 28626" d="M460.57,473.324h-1.433v6.446h1.433a2.9,2.9,0,0,0,3.192-2.566,2.855,2.855,0,0,0,0-.626,2.936,2.936,0,0,0-3.192-3.254Z" transform="translate(-355.969 -467.29)" fill="#fff"/>
        <path id="Path_28627" data-name="Path 28627" d="M378.388,477.9h2.865l-1.432-4.091Z" transform="translate(-367.758 -467.217)" fill="#fff"/>
        <path id="Path_28628" data-name="Path 28628" d="M369.112,468.057v18.769H486.468V468.057Zm14.54,13.66-.633-1.8h-3.686l-.633,1.8h-1.507l3.156-8.816h1.673l3.156,8.816Zm9.75-3.217a3.181,3.181,0,0,1-3.04,3.322,3.07,3.07,0,0,1-.423-.01,3.1,3.1,0,0,1-3.413-3.307V472.92h1.443v5.612a1.993,1.993,0,1,0,3.986,0V472.92H393.4Zm7.559-4.408h-2.344v7.625h-1.442v-7.625H394.82v-1.178h6.146Zm5.469,7.714a4.5,4.5,0,1,1,4.5-4.51,4.407,4.407,0,0,1-4.3,4.508h-.2Zm12.245-3.654h-1.6v3.573h-1.443v-8.8h3.036c2.089,0,3.116,1.194,3.116,2.626,0,1.247-.822,2.6-3.116,2.6Zm10.432,3.573-.633-1.8h-3.686l-.633,1.8h-1.51l3.156-8.816h1.671l3.156,8.816Zm7.458,0-2.031-3.521h-1.1v3.521h-1.443v-8.8h3.044c2.089,0,3.114,1.2,3.114,2.634a2.508,2.508,0,0,1-2.038,2.521l2.177,3.654Zm9.117-7.625h-2.345v7.625h-1.443v-7.632h-2.355v-1.178h6.146Zm4.355,7.713c-1.761,0-3.116-.963-3.116-2.521h1.546a1.412,1.412,0,0,0,1.508,1.31h.061c1.013,0,1.585-.545,1.585-1.292,0-2.128-4.674-.746-4.674-3.986,0-1.546,1.229-2.508,3.028-2.508a2.684,2.684,0,0,1,2.99,2.325v.056h-1.6a1.377,1.377,0,0,0-1.48-1.163c-.83-.025-1.482.379-1.482,1.229,0,1.993,4.651.747,4.651,3.965a2.734,2.734,0,0,1-2.86,2.6,1.21,1.21,0,0,1-.179-.013Zm12.457-.088h-4.42v-8.8h1.443v7.64h2.975Zm6.888-7.625h-2.349v7.625H465.6v-7.632h-2.357v-1.178h6.145Zm4.33,7.625h-2.873v-8.8h2.873a4.262,4.262,0,0,1,4.651,3.828,4.08,4.08,0,0,1,.017.6,4.224,4.224,0,0,1-4.674,4.368Z" transform="translate(-369.112 -468.057)" fill="#fff"/>
      </g>
    </g>
  </g>
</svg>
