<svg xmlns="http://www.w3.org/2000/svg" xmlns:xlink="http://www.w3.org/1999/xlink" width="674" height="750" viewBox="0 0 674 750">
  <defs>
    <clipPath id="clip-path">
      <rect id="Rectangle_2204" data-name="Rectangle 2204" width="674" height="750" rx="8" transform="translate(278 1422)" fill="rgba(0,0,0,0.06)"/>
    </clipPath>
    <linearGradient id="linear-gradient" x1="0.5" y1="1" x2="0.5" gradientUnits="objectBoundingBox">
      <stop offset="0" stop-color="#e4e4e4"/>
      <stop offset="0.474" stop-color="#f0f0f0" stop-opacity="0.698"/>
    </linearGradient>
  </defs>
  <g id="Group_15846" data-name="Group 15846" transform="translate(-278 -1422)">
    <rect id="Rectangle_2159" data-name="Rectangle 2159" width="674" height="750" rx="8" transform="translate(278 1422)" fill="rgba(0,0,0,0.06)"/>
    <g id="Mask_Group_25" data-name="Mask Group 25" clip-path="url(#clip-path)">
      <g id="undraw_futuristic_interface_4q3p" transform="translate(278 1534.825)">
        <path id="Path_220" data-name="Path 220" d="M277.264,485.4,531.047,0H23.481L277.264,485.4,531.047,0H23.481Z" opacity="0.4" fill="url(#linear-gradient)"/>
        <rect id="Rectangle_2205" data-name="Rectangle 2205" width="69.128" height="69.128" transform="translate(242.7 429.046)" fill="#3f3d56"/>
        <path id="Path_221" data-name="Path 221" d="M394.857,352.465c-72.092,0-130.742-58.651-130.742-130.742S322.766,90.98,394.857,90.98,525.6,149.631,525.6,221.723,466.949,352.465,394.857,352.465Zm0-257.728A126.986,126.986,0,1,0,521.843,221.723,127.129,127.129,0,0,0,394.857,94.737Z" transform="translate(-113.836 -75.953)" fill="#3f3d56"/>
        <path id="Path_222" data-name="Path 222" d="M394.857,320.907a99.184,99.184,0,1,1,99.184-99.184A99.3,99.3,0,0,1,394.857,320.907Zm0-196.114a96.93,96.93,0,1,0,96.93,96.93,96.93,96.93,0,0,0-96.93-96.93Z" transform="translate(-113.836 -75.953)" fill="#3f3d56"/>
        <path id="Path_223" data-name="Path 223" d="M394.857,253.281a31.559,31.559,0,1,1,31.559-31.559,31.558,31.558,0,0,1-31.559,31.559Zm0-61.614a30.056,30.056,0,1,0,30.056,30.056A30.056,30.056,0,0,0,394.857,191.667Z" transform="translate(-113.836 -75.953)" fill="#3f3d56"/>
        <path id="Path_224" data-name="Path 224" d="M387.343,184.153a30.807,30.807,0,0,0-30.807,30.807h30.807Z" transform="translate(-113.836 -75.953)" fill="#8f1742"/>
        <path id="Path_225" data-name="Path 225" d="M356.536,228.485a30.807,30.807,0,0,0,30.807,30.807V228.485Z" transform="translate(-113.836 -75.953)" fill="#8f1742" opacity="0.3"/>
        <path id="Path_226" data-name="Path 226" d="M400.117,184.153V214.96h30.807a30.807,30.807,0,0,0-30.807-30.807Z" transform="translate(-113.836 -75.953)" fill="#8f1742" opacity="0.3"/>
        <path id="Path_227" data-name="Path 227" d="M400.117,256.287a30.807,30.807,0,0,0,30.807-30.807H400.117Z" transform="translate(-113.836 -75.953)" fill="#8f1742"/>
        <path id="Path_228" data-name="Path 228" d="M312.133,108.894l-1.362-.636,15.981-34.246h103.42v1.5H327.711Z" fill="#3f3d56"/>
        <rect id="Rectangle_2206" data-name="Rectangle 2206" width="58.609" height="4.508" transform="translate(396.736 41.327)" fill="#3f3d56"/>
        <rect id="Rectangle_2207" data-name="Rectangle 2207" width="58.609" height="4.508" transform="translate(396.736 51.095)" fill="#3f3d56"/>
        <rect id="Rectangle_2208" data-name="Rectangle 2208" width="58.609" height="4.508" transform="translate(396.736 60.863)" fill="#3f3d56"/>
        <rect id="Rectangle_2209" data-name="Rectangle 2209" width="58.609" height="4.508" transform="translate(251.717 289.286)" fill="#3f3d56"/>
        <rect id="Rectangle_2210" data-name="Rectangle 2210" width="58.609" height="4.508" transform="translate(251.717 299.055)" fill="#3f3d56"/>
        <rect id="Rectangle_2211" data-name="Rectangle 2211" width="58.609" height="4.508" transform="translate(251.717 308.823)" fill="#3f3d56"/>
        <path id="Path_229" data-name="Path 229" d="M335.122,321.6h-1.5v-117l-17.169-27.62,1.277-.793,17.395,27.983Z" fill="#3f3d56"/>
        <path id="Path_230" data-name="Path 230" d="M228.424,321.6h-1.5V204.164l17.4-27.983,1.276.793-17.169,27.62Z" fill="#3f3d56"/>
        <rect id="Rectangle_2212" data-name="Rectangle 2212" width="674" height="1.503" transform="translate(0 497.422)" fill="#2f2e41"/>
        <ellipse id="Ellipse_111" data-name="Ellipse 111" cx="46.247" cy="11.701" rx="46.247" ry="11.701" transform="translate(472.112 331.079)" fill="#2f2e41"/>
        <path id="Path_231" data-name="Path 231" d="M614.086,263s-.557,22.288-5.015,25.073,7.8,11.144,7.8,11.144l18.387-3.343,11.7-14.487S638.6,271.356,641.389,263Z" transform="translate(-113.836 -75.953)" fill="#ffb6b6"/>
        <path id="Path_232" data-name="Path 232" d="M614.086,263s-.557,22.288-5.015,25.073,7.8,11.144,7.8,11.144l18.387-3.343,11.7-14.487S638.6,271.356,641.389,263Z" transform="translate(-113.836 -75.953)" opacity="0.1"/>
        <path id="Path_233" data-name="Path 233" d="M589.013,284.728s-9.472,3.9-10.029,17.273,0,52.376,0,52.376l16.158-1.114Z" transform="translate(-113.836 -75.953)" fill="#f0f0f0"/>
        <rect id="Rectangle_2213" data-name="Rectangle 2213" width="1.114" height="150.943" transform="matrix(0.991, -0.133, 0.133, 0.991, 545.387, 349.26)" fill="#2f2e41"/>
        <rect id="Rectangle_2214" data-name="Rectangle 2214" width="1.114" height="148.209" transform="translate(526.996 351.46) rotate(-4.961)" fill="#2f2e41"/>
        <rect id="Rectangle_2215" data-name="Rectangle 2215" width="170.934" height="1.115" transform="matrix(0.091, -0.996, 0.996, 0.091, 477.449, 498.745)" fill="#2f2e41"/>
        <rect id="Rectangle_2216" data-name="Rectangle 2216" width="1.114" height="173.712" transform="translate(506.266 325.765) rotate(-2.059)" fill="#2f2e41"/>
        <path id="Path_234" data-name="Path 234" d="M573.412,378.893s-64.077,4.457-53.49,25.631,61.848,56.833,61.848,56.833,9.472,2.229,11.144,2.786,27.3-16.716,27.3-16.716-15.6-9.472-22.845-11.144-27.859-19.5-27.859-19.5l57.947-14.487-33.988-28.974Z" transform="translate(-113.836 -75.953)" fill="#2f2e41"/>
        <path id="Path_235" data-name="Path 235" d="M624.673,392.823s-36.774,52.021-29.531,72.536,2.229,88.491,2.229,88.491,27.3,8.915,27.3,0,7.8-71.877,0-93.05c0,0,1.672-13.372,6.129-15.6s20.059-22.845,20.059-22.845,16.716-7.8,14.487-15.044S624.673,392.823,624.673,392.823Z" transform="translate(-113.836 -75.953)" fill="#2f2e41"/>
        <path id="Path_236" data-name="Path 236" d="M650.3,251.3a22.288,22.288,0,1,1-22.287-22.288A22.287,22.287,0,0,1,650.3,251.3Z" transform="translate(-113.836 -75.953)" fill="#ffb6b6"/>
        <path id="Path_237" data-name="Path 237" d="M642.5,273.585s33.431,13.93,28.417,31.76-15.6,94.722-31.76,94.722-50.147-8.915-52.376-12.258,8.358-71.32,8.358-71.32,12.8-41.446,17.545-38c0,0-3.058,17.937,13.1,13.479S642.5,273.585,642.5,273.585Z" transform="translate(-113.836 -75.953)" fill="#f0f0f0"/>
        <path id="Path_238" data-name="Path 238" d="M613.353,273.585s-28.24,3.9-27.126,10.029L584,307.016l8.915,47.361-1.114,15.6-27.3,9.472,32.317,9.472s13.373-64.077,11.144-76.335S613.353,273.585,613.353,273.585Z" transform="translate(-113.836 -75.953)" fill="#3f3d56"/>
        <path id="Path_239" data-name="Path 239" d="M641.637,271.611s30.4,17.575,32.625,23.147,0,59.062,0,59.062,3.9,50.147-7.243,62.962c0,0,3.9-6.686-16.716-6.686s-30.645-3.9-31.2-4.458-11.144,0-11.144,0-3.9-79.678,8.915-94.165S643.558,280.224,641.637,271.611Z" transform="translate(-113.836 -75.953)" fill="#3f3d56"/>
        <path id="Path_240" data-name="Path 240" d="M582.327,388.922v6.686s-22.287,20.616-13.372,26.188,26.188-20.059,26.188-20.059l2.1-14.893Z" transform="translate(-113.836 -75.953)" fill="#ffb6b6"/>
        <path id="Path_241" data-name="Path 241" d="M582.327,388.922v6.686s-22.287,20.616-13.372,26.188,26.188-20.059,26.188-20.059l2.1-14.893Z" transform="translate(-113.836 -75.953)" opacity="0.1"/>
        <path id="Path_242" data-name="Path 242" d="M591.242,459.685l6.129,8.915s-21.173,32.317-11.7,35.66,50.7-36.774,50.147-40.117-20.059-16.716-20.059-16.716Z" transform="translate(-113.836 -75.953)" fill="#2f2e41"/>
        <path id="Path_243" data-name="Path 243" d="M599.042,549.392l-5.015,22.288s-19.5,25.631-10.587,27.859,28.974-.557,31.76-6.686,6.129-14.487,10.587-21.173-3.9-22.288-3.9-22.288Z" transform="translate(-113.836 -75.953)" fill="#2f2e41"/>
        <path id="Path_244" data-name="Path 244" d="M582.884,344.348l-3.9,10.029,1.672,38.446s13.93-5.572,18.387,0l-3.9-38.446-6.129-10.029Z" transform="translate(-113.836 -75.953)" fill="#f0f0f0"/>
        <path id="Path_245" data-name="Path 245" d="M603.5,392.823l-10.587,3.343s-41.232,13.372-22.845,22.845,28.974-6.129,28.974-6.129l7.243-5.572Z" transform="translate(-113.836 -75.953)" fill="#ffb6b6"/>
        <path id="Path_246" data-name="Path 246" d="M665.9,296.429s-15.044,7.243-17.273,26.745-5.015,45.132-5.015,45.132l-27.859,18.387s-19.052-.756-16.212,6.308,3.4,22.108,8.412,19.88,12.258-15.6,19.5-16.158,37.332-12.258,40.675-25.631,16.158-58.5,10.587-65.191S670.362,293.643,665.9,296.429Z" transform="translate(-113.836 -75.953)" fill="#f0f0f0"/>
        <path id="Path_247" data-name="Path 247" d="M606.923,237.091s-8.917-.135-10.861,3.309-1.305,5.942,1.331,6,14.91-7.169,14.91-7.169Z" transform="translate(-113.836 -75.953)" fill="#3f3d56"/>
        <path id="Path_248" data-name="Path 248" d="M606.923,237.091s-8.917-.135-10.861,3.309-1.305,5.942,1.331,6,14.91-7.169,14.91-7.169Z" transform="translate(-113.836 -75.953)" opacity="0.1"/>
        <path id="Path_249" data-name="Path 249" d="M645.9,248.493l-6.1,5.284s-5.791,5.369-14.126-2.9-20.125-14.831-24.982-12.853l12.381-5.212,12.031-.333,13.67,5.756Z" transform="translate(-113.836 -75.953)" fill="#3f3d56"/>
        <path id="Path_250" data-name="Path 250" d="M650.065,254.449a75.908,75.908,0,0,0-7.653-7.5c-5.257-4.513-12.689-9.728-20.593-11.554,0,0-7.93-2.516-13.573-.091l10.912-11.918s5.9-3.35,8.98-2.5c0,0,10.37,2.23,13.3,4.836.083.073.159.147.228.219h0a7.589,7.589,0,0,1,4.622,2.5c2.67,3.051,6.87,9.03,5.96,15.668C650.936,253.694,650.065,254.449,650.065,254.449Z" transform="translate(-113.836 -75.953)" fill="#3f3d56"/>
        <path id="Path_251" data-name="Path 251" d="M644.456,249.86c-22.463-18.928-35.23-14.811-35.356-14.768l-.369-1.051c.537-.189,13.425-4.429,36.444,14.967Z" transform="translate(-113.836 -75.953)" opacity="0.1"/>
        <ellipse id="Ellipse_112" data-name="Ellipse 112" cx="2.229" cy="3.343" rx="2.229" ry="3.343" transform="matrix(0.5, -0.866, 0.866, 0.5, 523.265, 149.691)" fill="#3f3d56"/>
        <ellipse id="Ellipse_113" data-name="Ellipse 113" cx="1.672" cy="2.786" rx="1.672" ry="2.786" transform="translate(530.791 173.107) rotate(-8.311)" fill="#ffb6b6"/>
        <path id="Path_252" data-name="Path 252" d="M627.632,266.631c2.134-3.566-1.153-5.1-1.153-5.1s-7.522-2.741-10.319-3.767-4.107,3.014-4.107,3.014c-.507.24-3.56-2.089-5.706-4.251a22.3,22.3,0,0,0,33.242,13.818l3.945-9.534C638.089,264.445,632.784,266.438,627.632,266.631Zm-3.416,1.343a5.492,5.492,0,0,1-5.2,1.443l.173-.936s3.232-.162,1.867-.992a25.54,25.54,0,0,0-4.719-1.722s-1.031-.373.011,1.343l.579.713-.418.68s-3.031-1.772-2.747-4.842c0,0-.318-2.792,3.365-1.449s6.346,2.312,6.346,2.312S626.562,265.656,624.216,267.974Z" transform="translate(-113.836 -75.953)" fill="#3f3d56"/>
      </g>
    </g>
  </g>
</svg>
